<svg width="61" height="61" viewBox="0 0 61 61" fill="none" xmlns="http://www.w3.org/2000/svg">
<path d="M52.1041 6.35413H8.89581L12.7083 49.5625L30.5 54.6458L48.2916 49.5625L52.1041 6.35413Z" fill="#0277BD"/>
<path d="M30.5 10.1666V50.7062L44.7333 46.6395L47.9104 10.1666H30.5Z" fill="#039BE5"/>
<path d="M42.0646 16.5209H30.5V21.6042H36.7271L36.3458 26.6875H30.5V31.7709H36.0917L35.7104 37.4896L30.5 39.2688V44.6063L40.5396 41.3021L41.4292 26.6875L42.0646 16.5209Z" fill="white"/>
<path d="M30.5 16.5209V21.6042H19.1896L18.8083 16.5209H30.5ZM24.6542 26.6875L24.9083 31.7709H30.5V26.6875H24.6542ZM25.1625 34.3125H20.0792L20.4604 41.3021L30.5 44.6063V39.2688L25.2896 37.4896L25.1625 34.3125Z" fill="#EEEEEE"/>
</svg>
