<svg width="42" height="42" viewBox="0 0 42 42" fill="none" xmlns="http://www.w3.org/2000/svg">
<path d="M7 32.375L20.3297 7.38152C20.6106 6.85477 21.3701 6.86439 21.637 7.39902L26.25 16.625L7 32.375Z" fill="#FF8F00"/>
<path d="M7 32.3678L11.8527 2.44365C11.9796 1.66052 13.0314 1.49077 13.3989 2.19427L22.75 20.1178L7 32.3678Z" fill="#FFA000"/>
<path d="M7.00696 32.363L7.18196 32.2256L22.5198 19.6772L18.1938 11.3857L7.00696 32.363Z" fill="#FF6F00"/>
<path d="M7 32.375L30.3328 9.87612C30.8219 9.4045 31.6383 9.68275 31.738 10.3547L35 32.375L21.875 40.0251C21.3421 40.3244 20.692 40.3244 20.1591 40.0251L7 32.375Z" fill="#FFC400"/>
</svg>
