<svg width="65" height="66" viewBox="0 0 65 66" fill="none" xmlns="http://www.w3.org/2000/svg">
<path d="M62.291 16.1632C62.9648 13.7619 63.1504 11.2499 62.8369 8.77573C62.5234 6.30151 61.7172 3.91523 60.4658 1.75789C60.1573 1.22354 59.7136 0.779802 59.1793 0.471247C58.645 0.162692 58.0389 0.000192461 57.4219 7.39459e-05C54.6082 -0.00784573 51.829 0.620485 49.2924 1.83808C46.7558 3.05567 44.5272 4.83101 42.7734 7.03132H36.9141C35.1603 4.83101 32.9318 3.05567 30.3951 1.83808C27.8585 0.620485 25.0793 -0.00784573 22.2656 7.39459e-05C21.6486 0.000192461 21.0425 0.162692 20.5082 0.471247C19.9739 0.779802 19.5302 1.22354 19.2217 1.75789C17.9703 3.91523 17.1641 6.30151 16.8506 8.77573C16.5371 11.2499 16.7227 13.7619 17.3965 16.1632C15.9952 18.7591 15.2528 21.6595 15.2344 24.6094V26.9532C15.2399 30.8879 16.5632 34.7074 18.9931 37.8022C21.423 40.8969 24.8195 43.0886 28.6406 44.0274C27.5326 45.965 26.9508 48.1587 26.9531 50.3907V51.5626H22.2656C20.7116 51.5626 19.2213 50.9453 18.1224 49.8464C17.0236 48.7476 16.4063 47.2572 16.4062 45.7032C16.4024 42.2856 15.043 39.0091 12.6264 36.5924C10.2098 34.1758 6.93324 32.8165 3.51562 32.8126C2.58322 32.8126 1.68901 33.183 1.0297 33.8423C0.370395 34.5016 0 35.3958 0 36.3282C0 37.2606 0.370395 38.1548 1.0297 38.8141C1.68901 39.4734 2.58322 39.8438 3.51562 39.8438C5.06963 39.8438 6.55998 40.4612 7.65883 41.56C8.75767 42.6588 9.375 44.1492 9.375 45.7032C9.37888 49.1208 10.7382 52.3973 13.1549 54.814C15.5715 57.2306 18.848 58.5899 22.2656 58.5938H26.9531V62.1095C26.9531 63.0419 27.3235 63.9361 27.9828 64.5954C28.6421 65.2547 29.5363 65.6251 30.4688 65.6251C31.4012 65.6251 32.2954 65.2547 32.9547 64.5954C33.614 63.9361 33.9844 63.0419 33.9844 62.1095V50.3907C33.9844 48.8367 34.6017 47.3463 35.7005 46.2475C36.7994 45.1487 38.2897 44.5313 39.8438 44.5313C41.3978 44.5313 42.8881 45.1487 43.987 46.2475C45.0858 47.3463 45.7031 48.8367 45.7031 50.3907V62.1095C45.7031 63.0419 46.0735 63.9361 46.7328 64.5954C47.3921 65.2547 48.2863 65.6251 49.2188 65.6251C50.1512 65.6251 51.0454 65.2547 51.7047 64.5954C52.364 63.9361 52.7344 63.0419 52.7344 62.1095V50.3907C52.7367 48.1587 52.1549 45.965 51.0469 44.0274C54.868 43.0886 58.2645 40.8969 60.6944 37.8022C63.1243 34.7074 64.4476 30.8879 64.4531 26.9532V24.6094C64.4347 21.6595 63.6923 18.7591 62.291 16.1632ZM57.4219 26.9532C57.4219 29.7504 56.3107 32.433 54.3328 34.411C52.3548 36.3889 49.6722 37.5001 46.875 37.5001H32.8125C30.0153 37.5001 27.3327 36.3889 25.3547 34.411C23.3768 32.433 22.2656 29.7504 22.2656 26.9532V24.6094C22.2957 22.5144 22.9183 20.4708 24.0615 18.7149C24.4259 18.2431 24.6604 17.6841 24.7416 17.0935C24.8229 16.5029 24.748 15.9014 24.5244 15.3487C23.5159 12.7427 23.4744 9.86164 24.4072 7.22761C25.986 7.51848 27.488 8.13167 28.8192 9.02891C30.1504 9.92615 31.2824 11.0882 32.1445 12.4425C32.4624 12.9389 32.8999 13.3475 33.417 13.6306C33.9341 13.9137 34.514 14.0623 35.1035 14.0626H44.5811C45.171 14.0628 45.7516 13.9144 46.2692 13.6313C46.7868 13.3482 47.2249 12.9393 47.543 12.4425C48.4047 11.0878 49.5365 9.92554 50.8679 9.02825C52.1992 8.13096 53.7013 7.51797 55.2803 7.22761C56.2131 9.86164 56.1716 12.7427 55.1631 15.3487C54.9486 15.9055 54.8793 16.5077 54.9619 17.0987C55.0444 17.6897 55.2759 18.2499 55.6348 18.7266C56.7731 20.4799 57.3926 22.5193 57.4219 24.6094V26.9532Z" fill="#252525"/>
</svg>
