<svg width="61" height="61" viewBox="0 0 61 61" fill="none" xmlns="http://www.w3.org/2000/svg">
<path d="M52.1041 6.35413H8.89581L12.7083 49.5625L30.5 54.6458L48.2916 49.5625L52.1041 6.35413Z" fill="#E65100"/>
<path d="M30.5 10.1666V50.7062L44.7333 46.6395L47.9104 10.1666H30.5Z" fill="#FF6D00"/>
<path d="M30.5 31.7709V26.6875H41.4292L40.5396 41.3021L30.5 44.6063V39.2688L35.7104 37.4896L36.0917 31.7709H30.5ZM41.8104 21.6042L42.1917 16.5209H30.5V21.6042H41.8104Z" fill="white"/>
<path d="M30.5 39.2688V44.6063L20.4604 41.3021L19.9521 34.3125H25.0354L25.2896 37.4896L30.5 39.2688ZM24.2729 21.6042H30.5V16.5209H18.9354L19.825 31.7709H30.5V26.6875H24.6542L24.2729 21.6042Z" fill="#EEEEEE"/>
</svg>
