<svg width="61" height="61" viewBox="0 0 61 61" fill="none" xmlns="http://www.w3.org/2000/svg">
<path d="M7.625 53.375V7.625H53.375V53.375H7.625Z" fill="#FFD600"/>
<path d="M37.5379 41.8702C38.4173 43.2986 39.373 44.6673 41.3974 44.6673C43.0978 44.6673 43.9899 43.8222 43.9899 42.653C43.9899 41.2538 43.0673 40.7569 41.1966 39.9423L40.1711 39.5052C37.2113 38.2496 35.2428 36.6763 35.2428 33.3531C35.2428 30.2904 37.5875 27.9596 41.2513 27.9596C43.8603 27.9596 45.7348 28.8632 47.0869 31.2295L43.8921 33.2717C43.1893 32.0161 42.4293 31.5218 41.2513 31.5218C40.0491 31.5218 39.2878 32.2805 39.2878 33.2717C39.2878 34.4968 40.0503 34.9924 41.8104 35.7511L42.836 36.1883C46.3244 37.6739 48.2917 39.1913 48.2917 42.6022C48.2917 46.2774 45.3891 48.2917 41.4927 48.2917C37.6815 48.2917 35.5173 46.3791 34.3125 44.0115L37.5379 41.8702ZM22.814 41.9744C23.4571 43.1258 24.4343 44.0115 25.8399 44.0115C27.1844 44.0115 27.9584 43.4803 27.9584 41.4152V27.9584H32.1941V42.0659C32.1941 46.3448 29.7121 48.2917 26.0877 48.2917C22.8128 48.2917 20.449 46.0728 19.4857 44.0115L22.814 41.9744Z" fill="#000001"/>
</svg>
