<svg width="99" height="99" viewBox="0 0 99 99" fill="none" xmlns="http://www.w3.org/2000/svg">
<path d="M46.1236 52.518H52.1286V54.8094H54.4375V47.6866C54.4375 44.7548 52.0574 42.3746 49.1266 42.3746C46.1947 42.3746 43.8322 44.7548 43.8322 47.6866V54.8094H46.1236V52.518ZM49.1266 44.6836C50.7962 44.6836 52.1286 46.0345 52.1286 47.6866V50.209H46.1236V47.6866C46.1236 46.0345 47.4745 44.6836 49.1266 44.6836Z" fill="#E5EFF2"/>
<path d="M55.432 54.8094H57.7234V52.0559H61.206C61.3122 52.0559 61.437 52.0559 61.5432 52.0384C61.703 52.0209 61.8453 52.0023 61.9877 51.9848C62.5909 53.6368 64.1718 54.8094 66.0374 54.8094V52.5179C65.1319 52.5179 64.3503 51.9136 64.1193 51.0793C65.2918 50.1904 66.0374 48.7869 66.0374 47.2245C66.0374 44.5422 63.8707 42.3921 61.206 42.3921H55.432V54.8094ZM57.7234 44.6835H61.206C62.6085 44.6835 63.7459 45.821 63.7459 47.2245C63.7459 48.1124 63.2664 48.8941 62.5734 49.3561C62.1826 49.6047 61.703 49.747 61.206 49.747H57.7234V44.6835Z" fill="#E5EFF2"/>
<path d="M69.341 54.8094H71.4375C74.8664 54.8094 77.6549 52.0384 77.6549 48.592C77.6549 45.1631 74.8664 42.3921 71.4375 42.3921H67.0496V54.8094H69.341ZM69.341 44.6835H71.4375C73.6052 44.6835 75.3635 46.4428 75.3635 48.592C75.3635 50.7597 73.6052 52.5179 71.4375 52.5179H69.341V44.6835Z" fill="#E5EFF2"/>
<path d="M84.8846 54.8094C88.3135 54.8094 91.0845 52.0384 91.0845 48.592C91.0845 45.1631 88.3135 42.3921 84.8846 42.3921C81.4392 42.3921 78.6672 45.1631 78.6672 48.592C78.6672 52.0384 81.4392 54.8094 84.8846 54.8094ZM84.8846 44.6835C87.0348 44.6835 88.7931 46.4428 88.7931 48.592C88.7931 50.7597 87.0348 52.5179 84.8846 52.5179C82.718 52.5179 80.9587 50.7597 80.9587 48.592C80.9587 46.4428 82.718 44.6835 84.8846 44.6835Z" fill="#E5EFF2"/>
<path d="M14.4827 55.0029H22.7967V52.7115H14.4827V49.9405H22.7967V47.6491H14.4827V44.8781H22.7967V42.5867H12.1913V55.0029H14.4827Z" fill="#DAA520"/>
<path d="M26.08 55.0029H28.1765C31.6044 55.0029 34.3939 52.232 34.3939 48.7855C34.3939 45.3576 31.6044 42.5867 28.1765 42.5867H23.7886V55.0029H26.08ZM26.08 44.8781H28.1765C30.3432 44.8781 32.1025 46.6364 32.1025 48.7855C32.1025 50.9532 30.3432 52.7115 28.1765 52.7115H26.08V44.8781Z" fill="#DAA520"/>
<path d="M40.697 55.0028C43.6288 55.0028 46.0089 52.6402 46.0089 49.7094V42.568H43.6989V49.7094C43.6989 51.3615 42.3676 52.7114 40.697 52.7114C39.0449 52.7114 37.695 51.3615 37.695 49.7094V42.568H35.4036V49.7094C35.4036 52.6402 37.7662 55.0028 40.697 55.0028Z" fill="#DAA520"/>
<mask id="mask0_123_375" style="mask-type:luminance" maskUnits="userSpaceOnUse" x="54" y="19" width="16" height="13">
<path d="M54.912 19.6526H69.7445V31.1521H54.912V19.6526Z" fill="white"/>
</mask>
<g mask="url(#mask0_123_375)">
<path d="M66.6476 25.0254L69.7445 19.6547L55.043 29.5639C55.2822 30.062 55.4524 30.5942 55.5462 31.1469L66.6476 25.0254Z" fill="#E5EFF2"/>
</g>
<path d="M43.4641 32.1832C43.4641 32.0863 43.4672 31.9883 43.4713 31.8913L30.7838 25.9895L34.1921 30.1918L43.6394 33.6022C43.527 33.1464 43.4651 32.672 43.4641 32.1832Z" fill="#E5EFF2"/>
<mask id="mask1_123_375" style="mask-type:luminance" maskUnits="userSpaceOnUse" x="37" y="35" width="10" height="3">
<path d="M37.488 35.64H46.728V37.4725H37.488V35.64Z" fill="white"/>
</mask>
<g mask="url(#mask1_123_375)">
<path d="M45.1625 36.3465L37.6571 35.7153L40.5456 37.4324L46.5124 37.4035C46.0133 37.1147 45.5596 36.759 45.1625 36.3465Z" fill="#E5EFF2"/>
</g>
<mask id="mask2_123_375" style="mask-type:luminance" maskUnits="userSpaceOnUse" x="29" y="19" width="16" height="13">
<path d="M29.3524 19.6526H44.0879V31.1521H29.3524V19.6526Z" fill="white"/>
</mask>
<g mask="url(#mask2_123_375)">
<path d="M43.5496 31.147C43.6435 30.5943 43.8136 30.0622 44.0529 29.563L29.3524 19.6548L32.4482 25.0255L43.5496 31.147Z" fill="#E5EFF2"/>
</g>
<path d="M44.6335 35.7194C44.3561 35.342 44.122 34.9336 43.9374 34.4984L35.0975 32.1431L37.8778 34.549L44.6335 35.7194Z" fill="#E5EFF2"/>
<mask id="mask3_123_375" style="mask-type:luminance" maskUnits="userSpaceOnUse" x="44" y="21" width="11" height="17">
<path d="M44.088 21.912H54.912V37.4725H44.088V21.912Z" fill="white"/>
</mask>
<g mask="url(#mask3_123_375)">
<path d="M51.676 26.5351C51.4584 26.9105 51.0221 27.0981 50.5942 27.0125C50.2559 26.9455 49.9063 26.9094 49.5485 26.9094C49.1906 26.9094 48.841 26.9455 48.5028 27.0125C48.0748 27.0981 47.6386 26.9105 47.42 26.5351L46.6785 25.2574C46.1546 24.356 46.8095 23.2289 47.8572 23.2289H51.2397C52.2865 23.2289 52.9413 24.356 52.4174 25.2574L51.676 26.5351ZM48.0346 36.8826C46.2382 36.068 44.9893 34.2674 44.9893 32.176C44.9893 30.0846 46.2382 28.2841 48.0346 27.4694C46.5176 28.4903 45.5194 30.2177 45.5194 32.176C45.5194 34.1344 46.5176 35.8617 48.0346 36.8826ZM52.734 27.9706C52.471 27.7726 52.3989 27.4085 52.5639 27.1239L53.3404 25.7874C53.5539 25.4193 53.6673 25.0026 53.6673 24.584C53.6673 23.958 53.426 23.363 52.9877 22.9082C52.5288 22.4317 51.908 22.1698 51.2397 22.1698H47.8572C46.5187 22.1698 45.4286 23.2526 45.4286 24.584C45.4286 25.0026 45.5421 25.4193 45.7566 25.7874L46.5321 27.1239C46.6971 27.4085 46.627 27.7715 46.364 27.9695C45.0811 28.9317 44.253 30.461 44.2561 32.1822C44.2623 35.0408 46.5981 37.3921 49.4732 37.4323C52.4298 37.4725 54.8398 35.1017 54.8398 32.1709C54.8398 30.4549 54.0128 28.9307 52.734 27.9706Z" fill="#E5EFF2"/>
</g>
<mask id="mask4_123_375" style="mask-type:luminance" maskUnits="userSpaceOnUse" x="52" y="35" width="10" height="3">
<path d="M52.536 35.64H61.512V37.4725H52.536V35.64Z" fill="white"/>
</mask>
<g mask="url(#mask4_123_375)">
<path d="M53.8498 36.4486C53.4724 36.8239 53.0527 37.1426 52.603 37.4035L58.5502 37.4324L61.4388 35.7153L53.9488 36.3454C53.9158 36.3795 53.8838 36.4145 53.8498 36.4486Z" fill="#E5EFF2"/>
</g>
<path d="M55.6329 32.1708C55.6329 32.6586 55.573 33.1371 55.4617 33.6001L64.9048 30.1908L68.3131 25.9895L55.6256 31.8913C55.6298 31.9842 55.6329 32.077 55.6329 32.1708Z" fill="#E5EFF2"/>
<path d="M54.4778 35.7174L61.2191 34.549L63.9983 32.1431L55.1687 34.4953C54.9883 34.9264 54.7562 35.3358 54.4778 35.7174Z" fill="#E5EFF2"/>
<path d="M23.0793 62.5928C22.9731 62.1597 22.7081 61.7791 22.3533 61.5223C22.1677 61.3976 21.9553 61.3006 21.7335 61.247C21.45 61.1851 21.1488 61.1944 20.857 61.1944C20.5476 61.1944 20.2372 61.1944 19.9185 61.1944C19.7773 61.1944 19.6267 61.2119 19.4844 61.1676C19.3782 61.1325 19.2812 61.0882 19.2018 61.0088C18.8821 60.7334 18.8914 60.2116 19.2101 59.9373C19.4143 59.7775 19.6525 59.7599 19.901 59.7599C20.2104 59.7599 20.5208 59.7599 20.8302 59.7599C21.1138 59.7599 21.4324 59.7249 21.681 59.8754C21.7779 59.9373 21.8573 60.0167 21.9192 60.1137C21.946 60.1673 21.9728 60.2199 21.9903 60.2817C22.0079 60.3447 22.0171 60.3972 22.0615 60.4416C22.1058 60.4509 22.1409 60.4684 22.1852 60.4684C22.2296 60.4684 22.2739 60.4684 22.3265 60.4684C22.4152 60.4684 22.5039 60.4684 22.5926 60.4684C22.6813 60.4684 22.77 60.4684 22.8669 60.4684C22.9288 60.4684 23.0092 60.4767 23.0711 60.4509C23.1773 60.4065 23.1237 60.256 23.1061 60.1755C23.0886 60.0611 23.0525 59.9456 23.0175 59.8393C22.938 59.6362 22.8318 59.4413 22.6895 59.2814C22.5482 59.1226 22.3801 58.9896 22.1945 58.8834C22.0883 58.8215 21.9728 58.7772 21.8573 58.7411C21.7872 58.7153 21.7067 58.6977 21.6366 58.6792C21.5747 58.6709 21.5118 58.6534 21.4592 58.6173C20.8126 58.6173 20.1753 58.6173 19.538 58.6173C19.4761 58.6441 19.4143 58.6709 19.3514 58.6792C19.2895 58.6977 19.2276 58.706 19.1657 58.7235C19.0595 58.7596 18.9626 58.7947 18.8646 58.839C18.4841 59.0247 18.1747 59.3526 18.0056 59.7424C17.82 60.1497 17.8024 60.6014 17.9355 61.0263C18.0592 61.4244 18.3067 61.7698 18.6615 61.9998C18.8564 62.1236 19.077 62.2215 19.2988 62.2741C19.5999 62.336 19.901 62.3102 20.2021 62.3102C20.5115 62.3102 20.8219 62.3102 21.1313 62.3102C21.2736 62.3102 21.4149 62.3009 21.5479 62.3546C21.6449 62.3896 21.7335 62.4422 21.813 62.5227C21.9553 62.6732 22.0347 62.8857 22.0171 63.0888C21.9996 63.2837 21.8934 63.4693 21.7428 63.5941C21.5211 63.7529 21.2468 63.7447 20.99 63.7447C20.6796 63.7447 20.3702 63.7447 20.0598 63.7447C19.803 63.7447 19.538 63.7705 19.3163 63.6385C19.2276 63.5941 19.1575 63.523 19.1039 63.4436C19.0688 63.3992 19.042 63.3549 19.0245 63.3012C18.9976 63.2487 18.9884 63.1868 18.9626 63.1249C18.9265 63.063 18.8564 63.0537 18.7945 63.0537C18.7233 63.0537 18.6522 63.0537 18.581 63.0537C18.4222 63.0537 18.2624 63.0537 18.1035 63.0537C18.0417 63.0537 17.953 63.0445 17.8994 63.0806C17.8468 63.1156 17.855 63.1868 17.855 63.2487C17.8736 63.3724 17.9086 63.4962 17.9437 63.6117C18.086 64.0365 18.3954 64.3995 18.7852 64.6212C18.9976 64.7357 19.2194 64.8162 19.4586 64.8337C19.7587 64.8687 20.0784 64.8512 20.3785 64.8512C20.6889 64.8512 20.9983 64.8605 21.3087 64.8419C21.45 64.8419 21.6005 64.8337 21.7428 64.7976C21.8573 64.7718 21.9728 64.7357 22.079 64.6831C22.8494 64.3284 23.2918 63.4167 23.0793 62.5928ZM19.9629 59.299C19.9536 59.2546 19.9629 59.2464 19.9897 59.2113C19.998 59.2546 19.998 59.2732 19.9629 59.299ZM19.9093 59.0422C19.9185 59.0339 19.9361 59.0247 19.9454 59.0247C19.9629 59.0247 19.9722 59.0422 19.9722 59.0607C19.9629 59.0783 19.9454 59.0783 19.9278 59.0865C19.9185 59.069 19.901 59.0607 19.9093 59.0422ZM19.1214 59.3082C19.1482 59.3433 19.1575 59.3526 19.1482 59.3969C19.1131 59.3794 19.1214 59.3351 19.1214 59.3082ZM19.0688 59.299C19.0327 59.3433 19.0327 59.3433 18.9884 59.299C19.0152 59.299 19.042 59.299 19.0688 59.299ZM19.8742 61.4419C19.8649 61.4419 19.8649 61.4512 19.8567 61.4512C19.8474 61.4419 19.8474 61.4337 19.8391 61.4161C19.8649 61.4068 19.8649 61.4161 19.8742 61.4419ZM19.7948 61.61C19.803 61.6017 19.8123 61.6017 19.8299 61.5925C19.8299 61.6193 19.8391 61.6286 19.8216 61.6461C19.8123 61.6543 19.7855 61.6729 19.768 61.6812C19.7773 61.6636 19.7773 61.6286 19.7948 61.61ZM19.2544 61.6543C19.2637 61.6729 19.272 61.6812 19.2812 61.6904C19.2544 61.6987 19.2544 61.6904 19.2369 61.6636C19.2451 61.6636 19.2544 61.6636 19.2544 61.6543ZM19.671 61.8668C19.6442 61.8936 19.6174 61.9204 19.5906 61.9472C19.5555 61.9647 19.5287 61.9823 19.4937 61.9998C19.4844 62.0534 19.44 62.2298 19.3875 62.106C19.3431 62.0359 19.2812 62.0359 19.2101 62.0266C19.175 62.0266 19.1214 62.0173 19.0946 61.9823C19.077 61.9555 19.0863 61.9204 19.1131 61.9029C19.1482 61.8761 19.2101 61.8936 19.2544 61.9029C19.2895 61.9029 19.3163 61.9297 19.3514 61.9111C19.3606 61.8761 19.3606 61.8317 19.3699 61.7967C19.3782 61.7698 19.3957 61.743 19.405 61.7162C19.44 61.6543 19.4669 61.61 19.5463 61.5925C19.5999 61.61 19.5731 61.6636 19.5824 61.708C19.5906 61.7348 19.6174 61.7606 19.6267 61.7874C19.6442 61.8142 19.6525 61.841 19.671 61.8668ZM19.7587 61.6904C19.7587 61.7606 19.7505 61.8317 19.671 61.8668C19.671 61.7874 19.6886 61.7255 19.7587 61.6904ZM19.8917 62.1421C19.8299 62.1236 19.768 62.0792 19.7154 62.0534C19.6968 61.9823 19.7412 61.9555 19.803 61.9472C19.8742 61.9472 19.9361 62.0091 19.9897 62.0534C19.9722 62.0978 19.9536 62.1504 19.8917 62.1421ZM20.0691 61.9998C20.0598 62.0266 20.0248 62.0359 19.998 62.0442C19.9897 62.0091 19.9897 61.9379 20.0516 61.9472C20.0784 61.9555 20.0866 61.9823 20.0691 61.9998ZM20.1135 61.8317C20.0866 61.8317 20.0784 61.8142 20.0691 61.7967C20.0598 61.743 20.1578 61.708 20.1485 61.7791C20.1403 61.8049 20.1403 61.8317 20.1135 61.8317ZM20.7157 61.9111C20.7064 61.9111 20.6982 61.9204 20.6889 61.9204C20.6889 61.9029 20.6982 61.9111 20.7157 61.9111ZM20.7064 62.1328L20.724 62.1153V62.1328H20.7064ZM20.7332 61.9111C20.76 61.9029 20.7776 61.8853 20.8044 61.9111C20.7858 61.9111 20.76 61.9111 20.7332 61.9111ZM20.8302 61.7162C20.8219 61.6987 20.8302 61.6987 20.857 61.6904C20.857 61.6904 20.857 61.6987 20.8663 61.708C20.8487 61.708 20.8395 61.7162 20.8302 61.7162ZM19.8567 64.5944C19.8216 64.6037 19.7855 64.5676 19.7855 64.5408C19.7773 64.515 19.803 64.4346 19.8299 64.4171C19.8649 64.3902 19.8835 64.4532 19.8917 64.4789C19.8835 64.515 19.8917 64.5769 19.8567 64.5944ZM20.8663 64.0365C20.857 64.019 20.8395 64.0015 20.8302 63.9829C20.857 63.9747 20.8838 63.9571 20.9013 63.9829C20.9281 64.019 20.892 64.019 20.8663 64.0365ZM21.318 64.4263C21.2819 64.4088 21.2468 64.3902 21.2117 64.3552C21.3262 64.3377 21.3262 64.3469 21.318 64.4263ZM21.3623 63.9922L21.353 63.9829L21.3623 63.9747V63.9922ZM21.6449 64.3645C21.6005 64.382 21.5211 64.3201 21.5036 64.284C21.4768 64.2397 21.5036 64.1871 21.5562 64.1871C21.6005 64.1871 21.6449 64.2046 21.6717 64.249C21.6892 64.284 21.6892 64.3469 21.6449 64.3645ZM22.0079 61.8317C22.0171 61.8317 22.0254 61.841 22.044 61.841C22.0079 61.8761 21.9996 61.8761 22.0079 61.8317ZM22.539 62.2927C22.539 62.3185 22.4864 62.2927 22.4688 62.2834C22.4864 62.2741 22.5482 62.2659 22.539 62.2927ZM22.3801 61.9647L22.3894 61.973H22.3709L22.3801 61.9647ZM22.4595 62.2741C22.4152 62.2483 22.3801 62.2215 22.3358 62.1854C22.3894 62.1947 22.4327 62.2215 22.4595 62.2741ZM22.2646 62.3453C22.2822 62.336 22.3007 62.3628 22.3007 62.3803C22.309 62.4072 22.2915 62.434 22.2739 62.4608C22.2646 62.434 22.212 62.3546 22.2646 62.3453ZM22.2296 64.0541C22.2296 64.0541 22.2389 64.0541 22.2471 64.0541C22.2471 64.0541 22.2471 64.0633 22.2471 64.0716C22.2296 64.0716 22.2296 64.0716 22.2296 64.0541ZM22.3007 62.8764C22.3007 62.8588 22.3183 62.8496 22.3358 62.8681C22.3533 62.8857 22.3626 62.9382 22.3709 62.9651C22.3358 62.9558 22.2822 62.93 22.3007 62.8764ZM22.3265 63.4786C22.3709 63.426 22.407 63.5322 22.4152 63.558C22.3894 63.558 22.3626 63.5498 22.3451 63.5322C22.3265 63.523 22.309 63.4962 22.3265 63.4786ZM22.4152 63.9035C22.3894 63.8767 22.4245 63.8066 22.4595 63.8334C22.5039 63.8592 22.4513 63.9035 22.4152 63.9035ZM22.442 63.0187C22.407 63.0187 22.3894 62.9919 22.3801 62.9651C22.4513 62.9125 22.4864 62.7877 22.4152 62.7176C22.3709 62.6732 22.309 62.6639 22.2822 62.6113C22.2564 62.567 22.2646 62.5134 22.2822 62.469C22.2915 62.4783 22.3007 62.4783 22.3183 62.4866C22.3265 62.4958 22.3358 62.5227 22.3451 62.5309C22.3709 62.5577 22.3977 62.5845 22.4327 62.6021C22.4956 62.6371 22.5575 62.6639 22.5658 62.7433C22.5833 62.8145 22.5833 62.9207 22.5307 62.9743C22.5132 62.9919 22.4771 63.0187 22.442 63.0187ZM22.6813 63.7705C22.6637 63.7973 22.6369 63.8592 22.6101 63.8592C22.5658 63.8592 22.575 63.8066 22.5926 63.789C22.6194 63.7529 22.6545 63.7529 22.6895 63.7529C22.6895 63.7529 22.6813 63.7622 22.6813 63.7705ZM22.6545 63.6467C22.6462 63.6199 22.6276 63.4879 22.6545 63.4879C22.6895 63.4786 22.6895 63.6199 22.6988 63.6467C22.6813 63.6467 22.6637 63.6467 22.6545 63.6467ZM22.6988 63.7354C22.6988 63.7086 22.6988 63.6828 22.6988 63.656C22.7163 63.6911 22.7081 63.7086 22.6988 63.7354ZM22.7431 63.2569C22.6637 63.2837 22.6545 63.195 22.575 63.1775C22.6019 63.1692 22.6194 63.1507 22.6462 63.1424C22.672 63.1332 22.7081 63.1424 22.7431 63.1507C22.7431 63.1868 22.7431 63.2218 22.7431 63.2569ZM22.8318 63.1156C22.8143 63.1424 22.7782 63.1424 22.7431 63.1507C22.7339 63.1156 22.7163 63.0806 22.7431 63.0537C22.7607 63.0269 22.7875 63.0269 22.8143 63.0445C22.8401 63.063 22.8494 63.0888 22.8318 63.1156ZM19.4937 61.7967C19.4937 61.8049 19.4844 61.8142 19.4844 61.8224C19.4844 61.841 19.5205 61.8492 19.5287 61.8585C19.5205 61.8317 19.5205 61.8049 19.4937 61.7967ZM19.5287 61.8668H19.538L19.5287 61.8585C19.5287 61.8668 19.5287 61.8668 19.5287 61.8668Z" fill="#E5EFF2"/>
<path d="M30.6149 60.8664C30.4376 60.2466 30.0663 59.7063 29.561 59.3082C29.3403 59.1308 29.0918 58.9895 28.8267 58.8833C28.6937 58.8297 28.57 58.7854 28.4369 58.7596C28.339 58.7328 28.242 58.7152 28.1358 58.6977C28.0564 58.6791 27.9316 58.6791 27.8615 58.609C27.7285 58.609 27.5862 58.609 27.4542 58.609C27.3737 58.6709 27.2675 58.6709 27.1788 58.6884C27.0819 58.7059 26.9932 58.7235 26.8962 58.741C26.3115 58.8916 25.7629 59.2113 25.3556 59.6619C24.9482 60.0961 24.6822 60.654 24.5852 61.2469C24.479 61.876 24.5759 62.5309 24.8502 63.1063C25.1163 63.6559 25.5412 64.1076 26.0547 64.417C26.3022 64.5676 26.5683 64.6738 26.8426 64.7532C27.1437 64.8244 27.4449 64.8512 27.746 64.8419C28.1183 64.8336 28.472 64.7625 28.8175 64.6212C29.1011 64.5057 29.3578 64.3551 29.5971 64.1695C30.057 63.7972 30.4107 63.2929 30.5881 62.7258C30.7923 62.1235 30.7923 61.4687 30.6149 60.8664ZM29.4723 60.1136C29.4991 60.1136 29.4991 60.1579 29.4991 60.1755C29.4991 60.194 29.4991 60.2291 29.4723 60.2198C29.4465 60.2116 29.4372 60.1755 29.4372 60.1579C29.4372 60.1322 29.4465 60.1054 29.4723 60.1136ZM27.8697 59.1226C27.8873 59.1226 27.879 59.1401 27.8697 59.1226ZM26.0816 63.7446L26.0898 63.7354V63.7446H26.0816ZM27.7553 64.3902C27.7192 64.3644 27.7017 64.3469 27.6924 64.3025C27.6924 64.2757 27.6841 64.2396 27.6924 64.2046C27.6924 64.152 27.7192 64.0984 27.7635 64.0633C27.7728 64.1252 27.7811 64.187 27.7811 64.2489C27.7811 64.3025 27.7903 64.3551 27.7553 64.3902ZM27.8254 64.0715C27.8347 64.0808 27.8429 64.0984 27.8522 64.1076C27.8347 64.0984 27.8347 64.0901 27.8254 64.0715ZM27.9141 64.4789L27.9058 64.4614H27.9141V64.4789ZM28.0564 64.2933C28.0471 64.284 28.0378 64.2757 28.0203 64.2664C28.0296 64.2582 28.0378 64.2489 28.0378 64.2314C28.0739 64.2489 28.0739 64.2489 28.0564 64.2933ZM28.6844 64.2314C28.6669 64.2221 28.6576 64.2046 28.6576 64.1963C28.6576 64.1778 28.6669 64.152 28.6844 64.152C28.7112 64.152 28.7195 64.187 28.7288 64.2046C28.7195 64.2139 28.702 64.2396 28.6844 64.2314ZM28.8886 63.9921C28.8886 64.0189 28.8701 64.1252 28.8443 64.1334C28.7999 64.1427 28.7731 64.0458 28.7731 64.0097C28.7638 63.9921 28.7638 63.9571 28.7731 63.9395C28.7824 63.921 28.8082 63.9127 28.8175 63.9034C28.8618 63.9127 28.8969 63.9478 28.8886 63.9921ZM28.0028 63.7085C27.1706 63.8591 26.3208 63.461 25.9135 62.7258C25.5144 62.009 25.5948 61.0964 26.1259 60.4684C26.6745 59.8125 27.6222 59.5918 28.4194 59.9187C29.1454 60.2198 29.6404 60.9726 29.6322 61.7605C29.6322 61.8667 29.6229 61.9729 29.6053 62.0792C29.4723 62.8939 28.8175 63.5673 28.0028 63.7085ZM29.1361 63.558L29.1268 63.5497L29.1454 63.5404L29.1361 63.558ZM29.296 63.8065C29.2774 63.7972 29.2692 63.7704 29.2774 63.7529C29.2867 63.7261 29.3135 63.7261 29.331 63.7354C29.3578 63.7529 29.3486 63.7797 29.3578 63.8065C29.331 63.8148 29.3135 63.824 29.296 63.8065ZM29.4372 63.4518C29.428 63.4786 29.4104 63.4961 29.4022 63.5229C29.3929 63.5404 29.3754 63.5765 29.3578 63.5848C29.3217 63.6199 29.2774 63.5848 29.2692 63.5404C29.2516 63.4961 29.2599 63.461 29.2867 63.426C29.3217 63.3816 29.3403 63.3373 29.3486 63.2837C29.3578 63.2393 29.3403 63.1867 29.3578 63.1424C29.3661 63.1063 29.428 63.0712 29.4465 63.1249C29.4548 63.1774 29.4465 63.2393 29.4465 63.2929C29.4641 63.3455 29.4548 63.3992 29.4372 63.4518ZM29.659 63.558C29.6672 63.5497 29.6672 63.5322 29.6847 63.5322C29.694 63.5322 29.7116 63.5322 29.7116 63.5404C29.7208 63.5673 29.6765 63.5673 29.659 63.558ZM29.7033 63.3373C29.6847 63.3105 29.6765 63.2569 29.6847 63.2218C29.694 63.1867 29.7291 63.1774 29.7559 63.2043C29.7734 63.2393 29.7827 63.3012 29.791 63.3373C29.7652 63.3724 29.7384 63.3899 29.7033 63.3373ZM29.6322 63.0805C29.5878 63.0362 29.6146 62.9825 29.5785 62.9124C29.6497 62.8939 29.791 62.8144 29.8271 62.9124C29.8714 63.0186 29.7116 63.1063 29.6322 63.0805ZM30.0127 62.106C30.0127 62.0977 30.0395 62.0792 30.0477 62.0884C30.0663 62.0977 30.0663 62.1235 30.0746 62.1328C30.057 62.1421 30.0302 62.1596 30.022 62.1503C30.0127 62.1421 30.0034 62.1153 30.0127 62.106ZM30.0477 62.3803C30.022 62.4071 29.9952 62.3452 29.9776 62.3277C30.0034 62.3359 30.0746 62.3545 30.0477 62.3803ZM29.9859 63.2311C29.924 63.2569 29.9683 63.1599 29.9776 63.1331C29.9859 63.1506 30.022 63.1599 30.022 63.1774C30.0302 63.195 30.0034 63.2311 29.9859 63.2311ZM30.0302 62.9299C30.0034 62.9382 29.9683 62.9299 29.9776 62.8856C29.9776 62.8588 30.022 62.8413 30.0477 62.832C30.0838 62.8237 30.1014 62.8413 30.1189 62.8763C30.1014 62.9124 30.0746 62.9299 30.0302 62.9299ZM30.3045 62.3989C30.287 62.4339 30.2519 62.4514 30.2076 62.4514C30.154 62.4246 30.2427 62.2834 30.2963 62.3102C30.3313 62.3184 30.3231 62.372 30.3045 62.3989ZM30.42 62.5133L30.4293 62.5051V62.5133H30.42ZM30.42 62.0359C30.3757 62.0359 30.3138 61.9998 30.3045 61.9472C30.2963 61.8853 30.3674 61.8853 30.4107 61.876C30.4551 61.8935 30.517 61.9111 30.517 61.9647C30.517 62.0173 30.4737 62.0441 30.42 62.0359Z" fill="#E5EFF2"/>
<path d="M37.2121 64.4964C37.1585 64.4088 37.1142 64.3283 37.0616 64.2489C36.9554 64.0901 36.8574 63.9303 36.7512 63.7704C36.6542 63.6116 36.5563 63.461 36.4593 63.3012C36.4232 63.2393 36.3438 63.1599 36.3789 63.0888C36.3975 63.0537 36.4325 63.0269 36.4593 63.0094C36.4944 62.9825 36.5295 62.9557 36.5563 62.9299C36.778 62.7526 36.9636 62.5401 37.1142 62.3009C37.3978 61.8317 37.4865 61.2738 37.4328 60.7334C37.371 60.1848 37.0791 59.6537 36.68 59.2814C36.4851 59.1133 36.2727 58.972 36.0427 58.8658C35.9282 58.8122 35.8127 58.7678 35.689 58.741C35.6178 58.7152 35.5467 58.7059 35.4673 58.6884C35.3879 58.6709 35.2992 58.6709 35.2373 58.609C34.2184 58.609 33.1913 58.609 32.1735 58.609C32.1735 58.6977 32.1735 58.7854 32.1735 58.874C32.1827 59.6 32.1735 60.326 32.1735 61.052C32.1735 61.7791 32.1735 62.5051 32.1735 63.2311C32.1735 63.5941 32.1735 63.9571 32.1735 64.3201C32.1735 64.4088 32.1735 64.4964 32.1735 64.5851C32.1827 64.647 32.1642 64.7532 32.2085 64.8068C32.2621 64.8604 32.3591 64.8512 32.4302 64.8512C32.5189 64.8512 32.6076 64.8512 32.6963 64.8512C32.784 64.8512 32.8819 64.8512 32.9706 64.8512C33.05 64.8512 33.147 64.8604 33.2274 64.8336C33.2975 64.7975 33.28 64.6831 33.28 64.6212C33.2893 64.5325 33.28 64.4438 33.28 64.3551C33.28 64.1778 33.28 63.9921 33.28 63.8148C33.28 63.7354 33.28 63.6642 33.2893 63.5941C33.2893 63.558 33.2893 63.5229 33.3161 63.4961C33.3419 63.4693 33.378 63.4693 33.413 63.461C33.4749 63.4518 33.5461 63.461 33.6172 63.461C33.7936 63.461 33.9709 63.461 34.1566 63.461C34.5113 63.461 34.865 63.4435 35.2105 63.4693C35.3167 63.5497 35.3703 63.6735 35.4405 63.7797C35.5209 63.9034 35.6003 64.0365 35.6797 64.1602C35.7591 64.2933 35.8478 64.417 35.9282 64.55C35.9901 64.647 36.0427 64.7625 36.1489 64.8336C36.2376 64.8419 36.317 64.8512 36.4057 64.8512C36.6006 64.8512 36.7862 64.8512 36.9811 64.8512C37.0698 64.8512 37.1585 64.8512 37.2555 64.8512C37.2916 64.8512 37.3359 64.8512 37.3617 64.8244C37.3978 64.7975 37.371 64.7625 37.3534 64.7274C37.3184 64.647 37.2647 64.5676 37.2121 64.4964ZM36.8131 61.9554C36.8048 61.9554 36.7955 61.9554 36.7955 61.9647C36.778 61.9296 36.8131 61.9296 36.8131 61.9554ZM36.6893 62.4339C36.6986 62.4514 36.68 62.4514 36.6718 62.4514C36.68 62.4514 36.68 62.4422 36.6893 62.4339ZM36.5656 61.7162V61.7254H36.5563L36.5656 61.7162ZM36.5212 62.3896C36.5119 62.4071 36.5037 62.4071 36.4769 62.4164C36.4851 62.3803 36.4851 62.3803 36.5212 62.3896ZM32.3859 63.6023C32.3333 63.5848 32.3147 63.5322 32.3416 63.4786C32.3591 63.4342 32.4127 63.3992 32.4653 63.426C32.4921 63.4435 32.5014 63.4786 32.5189 63.5054C32.5365 63.5404 32.5633 63.5765 32.5808 63.6023C32.5096 63.6199 32.4571 63.6291 32.3859 63.6023ZM32.4921 63.7446C32.5457 63.7085 32.5715 63.6642 32.5808 63.6116C32.6159 63.6116 32.6427 63.6116 32.6695 63.6116C32.687 63.6642 32.7138 63.7446 32.652 63.789C32.5901 63.8333 32.5365 63.789 32.4921 63.7446ZM32.5365 64.1602C32.5096 64.1252 32.5457 64.0715 32.5715 64.0458C32.6076 64.0097 32.6334 64.0365 32.6777 64.054C32.7046 64.0458 32.7582 64.0014 32.7932 64.0097C32.8376 64.0189 32.8201 64.0715 32.8025 64.0984C32.7757 64.1334 32.7221 64.1695 32.7406 64.2139C32.7582 64.2582 32.8201 64.2757 32.8551 64.2933C32.8025 64.3201 32.7489 64.3376 32.687 64.3283C32.6427 64.3108 32.652 64.2664 32.6251 64.2221C32.6076 64.187 32.554 64.1963 32.5365 64.1602ZM32.8025 64.5676C32.7582 64.5944 32.7138 64.5851 32.6777 64.55C32.652 64.5325 32.6334 64.515 32.6159 64.4964C32.5901 64.4789 32.5715 64.4789 32.5457 64.4706C32.554 64.3819 32.6695 64.3902 32.7314 64.3995C32.8025 64.3995 32.8376 64.3644 32.8551 64.2933C32.9087 64.3902 32.8995 64.5057 32.8025 64.5676ZM32.917 63.7972C32.8726 63.8148 32.8283 63.8333 32.784 63.8509C32.8025 63.789 32.8376 63.6199 32.9345 63.7085C32.9706 63.7446 32.9613 63.7797 32.917 63.7972ZM32.9531 63.9921C32.9789 63.9921 33.0057 63.9829 33.0232 63.9921C33.05 63.9921 33.05 64.0097 33.0676 64.0189C33.015 64.0365 32.9974 64.0189 32.9531 63.9921ZM33.0768 63.6735L33.0676 63.6559H33.0851L33.0768 63.6735ZM33.1036 62.8939C33.0676 62.8939 33.0407 62.8939 33.0057 62.9031C32.9706 62.9557 32.917 63.0094 32.9438 63.0805C32.9613 63.1424 33.0232 63.1774 33.0325 63.2393C33.0325 63.2837 33.0057 63.3373 32.9531 63.3455C32.8995 63.3548 32.8201 63.328 32.7757 63.3724C32.7582 63.4435 32.8376 63.4961 32.8201 63.5673C32.7757 63.6199 32.7221 63.6023 32.6777 63.6023C32.6777 63.5765 32.687 63.5497 32.6777 63.5229C32.6427 63.4879 32.5901 63.4786 32.5633 63.4435C32.5272 63.3992 32.5014 63.3198 32.5096 63.2661C32.5189 63.1506 32.6695 63.1063 32.7664 63.098C32.7406 63.0269 32.7221 62.9557 32.6963 62.8681C32.7138 62.8237 32.7406 62.7794 32.7664 62.7258C32.7582 62.6814 32.7406 62.6371 32.7221 62.5845C32.7489 62.5577 32.784 62.5226 32.8108 62.4865C32.8819 62.5051 32.917 62.5494 32.9531 62.602C32.9974 62.6639 33.0676 62.7258 33.1212 62.7794C33.1294 62.832 33.1212 62.8681 33.1036 62.8939ZM33.0676 62.5927C33.0768 62.5226 33.1294 62.5669 33.1562 62.5845C33.1387 62.602 33.0676 62.6639 33.0676 62.5927ZM33.4037 59.202C33.3687 59.1927 33.3687 59.1927 33.3604 59.1669C33.3955 59.1576 33.3955 59.1752 33.4037 59.202ZM33.4306 62.6113C33.413 62.6288 33.3862 62.6288 33.3687 62.6371C33.3419 62.6371 33.2975 62.6195 33.2975 62.5845C33.3068 62.5133 33.4223 62.5226 33.4481 62.5752C33.4398 62.5927 33.4398 62.602 33.4306 62.6113ZM33.7049 62.6989C33.6698 62.6989 33.6523 62.6907 33.6347 62.6556C33.6255 62.6371 33.6172 62.6113 33.643 62.5927C33.6966 62.5669 33.7141 62.6639 33.7049 62.6989ZM33.9173 62.7258C33.9173 62.7082 33.9266 62.6556 33.9534 62.6639C33.9802 62.6814 33.9266 62.7175 33.9173 62.7258ZM34.2452 62.7175C34.2277 62.7082 34.1926 62.6814 34.2009 62.6556C34.2009 62.6195 34.2277 62.6288 34.2545 62.6288C34.2628 62.6288 34.2896 62.6371 34.2989 62.6464C34.3071 62.6556 34.3071 62.6732 34.3164 62.6907C34.2896 62.7082 34.2813 62.7258 34.2452 62.7175ZM34.6175 63.0362C34.6082 63.063 34.5288 63.1063 34.5381 63.0537C34.5464 63.0186 34.6351 63.0186 34.6175 63.0362ZM34.7062 62.7082L34.6876 62.6989L34.7062 62.6907V62.7082ZM35.0073 63.1063C34.9805 63.1063 34.9011 63.1249 34.8826 63.098C34.8568 63.0537 34.963 63.0362 34.9805 63.0362C35.0424 63.0362 35.1043 63.0444 35.1579 63.0444C35.1218 63.0805 35.0692 63.098 35.0073 63.1063ZM34.9269 62.7701C34.9444 62.7526 34.9444 62.7619 34.9537 62.7876C34.9537 62.7876 34.9444 62.7876 34.9444 62.7969C34.9362 62.7876 34.9269 62.7794 34.9269 62.7701ZM35.458 62.6989C35.458 62.6989 35.458 62.6907 35.4497 62.6814C35.4673 62.6814 35.4673 62.6814 35.4766 62.6989C35.4673 62.6989 35.4673 62.6989 35.458 62.6989ZM36.0159 62.6814C36.0252 62.6639 36.0252 62.6639 36.0427 62.6732C36.0345 62.6907 36.0345 62.6907 36.0159 62.6814ZM36.0159 61.9204C35.8396 62.1153 35.6086 62.2483 35.3518 62.3102C35.1837 62.3545 34.9981 62.3545 34.8207 62.3545C34.6258 62.3545 34.4309 62.3545 34.237 62.3545C34.0503 62.3545 33.8554 62.3545 33.6698 62.3545C33.5729 62.3545 33.4842 62.3545 33.3862 62.3452C33.3511 62.3359 33.3161 62.3359 33.3068 62.3009C33.2893 62.2658 33.2893 62.2215 33.2893 62.1854C33.2717 61.9998 33.28 61.8049 33.28 61.6192C33.28 61.4243 33.28 61.2387 33.28 61.0438C33.28 60.9551 33.28 60.8582 33.28 60.7602C33.28 60.5746 33.28 60.3797 33.28 60.194C33.28 60.1054 33.28 60.0167 33.2893 59.9187C33.2975 59.8836 33.2893 59.831 33.3161 59.7949C33.3419 59.7681 33.378 59.7681 33.413 59.7681C33.511 59.7506 33.5986 59.7599 33.6966 59.7599C33.7936 59.7599 33.8822 59.7599 33.9802 59.7599C34.1658 59.7599 34.3607 59.7599 34.5464 59.7599C34.9094 59.7599 35.2641 59.7331 35.6003 59.8929C35.8396 60.0074 36.0427 60.194 36.1757 60.424C36.4501 60.8932 36.3789 61.513 36.0159 61.9204ZM36.1407 63.0712C36.1407 63.0537 36.1582 63.0444 36.1757 63.0444C36.185 63.0444 36.185 63.063 36.1933 63.0805C36.185 63.1156 36.1314 63.1063 36.1407 63.0712ZM36.1933 62.8144C36.185 62.8237 36.1757 62.832 36.1665 62.8413C36.1407 62.7969 36.1582 62.7969 36.1933 62.8144ZM36.2376 62.6814C36.2201 62.6732 36.1933 62.6556 36.1933 62.6288C36.2026 62.5494 36.2912 62.5752 36.2995 62.6371C36.282 62.6556 36.2727 62.6814 36.2376 62.6814ZM36.2995 62.372C36.2551 62.3102 36.1757 62.3277 36.1221 62.2834C36.1046 62.239 36.1139 62.1771 36.1582 62.1503C36.185 62.1235 36.2376 62.1328 36.2727 62.1421C36.3975 62.1771 36.3531 62.2926 36.2995 62.372Z" fill="#E5EFF2"/>
<path d="M43.9241 64.4964C43.8704 64.4088 43.8261 64.3283 43.7735 64.2489C43.6673 64.0901 43.5693 63.9303 43.4631 63.7704C43.3662 63.6116 43.2682 63.461 43.1713 63.3012C43.1352 63.2393 43.0558 63.1599 43.0908 63.0888C43.1094 63.0537 43.1444 63.0269 43.1713 63.0094C43.2063 62.9825 43.2414 62.9557 43.2682 62.9299C43.4899 62.7526 43.6755 62.5401 43.8261 62.3009C44.1097 61.8317 44.1984 61.2738 44.1448 60.7334C44.0829 60.1848 43.791 59.6537 43.3919 59.2814C43.197 59.1133 42.9846 58.972 42.7546 58.8658C42.6402 58.8122 42.5247 58.7678 42.4009 58.741C42.3298 58.7152 42.2586 58.7059 42.1792 58.6884C42.0998 58.6709 42.0111 58.6709 41.9492 58.609C40.9303 58.609 39.9032 58.609 38.8854 58.609C38.8854 58.6977 38.8854 58.7854 38.8854 58.874C38.8947 59.6 38.8854 60.326 38.8854 61.052C38.8854 61.7791 38.8854 62.5051 38.8854 63.2311C38.8854 63.5941 38.8854 63.9571 38.8854 64.3201C38.8854 64.4088 38.8854 64.4964 38.8854 64.5851C38.8947 64.647 38.8761 64.7532 38.9204 64.8068C38.9741 64.8604 39.071 64.8512 39.1422 64.8512C39.2308 64.8512 39.3195 64.8512 39.4082 64.8512C39.4959 64.8512 39.5938 64.8512 39.6825 64.8512C39.7619 64.8512 39.8589 64.8604 39.9393 64.8336C40.0094 64.7975 39.9919 64.6831 39.9919 64.6212C40.0012 64.5325 39.9919 64.4438 39.9919 64.3551C39.9919 64.1778 39.9919 63.9921 39.9919 63.8148C39.9919 63.7354 39.9919 63.6642 40.0012 63.5941C40.0012 63.558 40.0012 63.5229 40.028 63.4961C40.0538 63.4693 40.0899 63.4693 40.1249 63.461C40.1868 63.4518 40.258 63.461 40.3291 63.461C40.5055 63.461 40.6828 63.461 40.8685 63.461C41.2232 63.461 41.5769 63.4435 41.9224 63.4693C42.0286 63.5497 42.0823 63.6735 42.1524 63.7797C42.2328 63.9034 42.3122 64.0365 42.3916 64.1602C42.471 64.2933 42.5597 64.417 42.6402 64.55C42.702 64.647 42.7546 64.7625 42.8608 64.8336C42.9495 64.8419 43.0289 64.8512 43.1176 64.8512C43.3125 64.8512 43.4982 64.8512 43.6931 64.8512C43.7818 64.8512 43.8704 64.8512 43.9674 64.8512C44.0035 64.8512 44.0478 64.8512 44.0736 64.8244C44.1097 64.7975 44.0829 64.7625 44.0653 64.7274C44.0303 64.647 43.9767 64.5676 43.9241 64.4964ZM43.525 61.9554C43.5167 61.9554 43.5074 61.9554 43.5074 61.9647C43.4899 61.9296 43.525 61.9296 43.525 61.9554ZM43.4012 62.4339C43.4105 62.4514 43.3919 62.4514 43.3837 62.4514C43.3919 62.4514 43.3919 62.4422 43.4012 62.4339ZM43.2775 61.7162V61.7254H43.2682L43.2775 61.7162ZM43.2331 62.3896C43.2238 62.4071 43.2156 62.4071 43.1888 62.4164C43.197 62.3803 43.197 62.3803 43.2331 62.3896ZM39.0978 63.6023C39.0452 63.5848 39.0267 63.5322 39.0535 63.4786C39.071 63.4342 39.1246 63.3992 39.1772 63.426C39.204 63.4435 39.2133 63.4786 39.2308 63.5054C39.2484 63.5404 39.2752 63.5765 39.2927 63.6023C39.2216 63.6199 39.169 63.6291 39.0978 63.6023ZM39.204 63.7446C39.2577 63.7085 39.2834 63.6642 39.2927 63.6116C39.3278 63.6116 39.3546 63.6116 39.3814 63.6116C39.3989 63.6642 39.4258 63.7446 39.3639 63.789C39.302 63.8333 39.2484 63.789 39.204 63.7446ZM39.2484 64.1602C39.2216 64.1252 39.2577 64.0715 39.2834 64.0458C39.3195 64.0097 39.3453 64.0365 39.3897 64.054C39.4165 64.0458 39.4701 64.0014 39.5052 64.0097C39.5495 64.0189 39.532 64.0715 39.5144 64.0984C39.4876 64.1334 39.434 64.1695 39.4526 64.2139C39.4701 64.2582 39.532 64.2757 39.567 64.2933C39.5144 64.3201 39.4608 64.3376 39.3989 64.3283C39.3546 64.3108 39.3639 64.2664 39.3371 64.2221C39.3195 64.187 39.2659 64.1963 39.2484 64.1602ZM39.5144 64.5676C39.4701 64.5944 39.4258 64.5851 39.3897 64.55C39.3639 64.5325 39.3453 64.515 39.3278 64.4964C39.302 64.4789 39.2834 64.4789 39.2577 64.4706C39.2659 64.3819 39.3814 64.3902 39.4433 64.3995C39.5144 64.3995 39.5495 64.3644 39.567 64.2933C39.6207 64.3902 39.6114 64.5057 39.5144 64.5676ZM39.6289 63.7972C39.5846 63.8148 39.5402 63.8333 39.4959 63.8509C39.5144 63.789 39.5495 63.6199 39.6464 63.7085C39.6825 63.7446 39.6733 63.7797 39.6289 63.7972ZM39.665 63.9921C39.6908 63.9921 39.7176 63.9829 39.7351 63.9921C39.7619 63.9921 39.7619 64.0097 39.7795 64.0189C39.7269 64.0365 39.7093 64.0189 39.665 63.9921ZM39.7888 63.6735L39.7795 63.6559H39.797L39.7888 63.6735ZM39.8156 62.8939C39.7795 62.8939 39.7527 62.8939 39.7176 62.9031C39.6825 62.9557 39.6289 63.0094 39.6557 63.0805C39.6733 63.1424 39.7351 63.1774 39.7444 63.2393C39.7444 63.2837 39.7176 63.3373 39.665 63.3455C39.6114 63.3548 39.532 63.328 39.4876 63.3724C39.4701 63.4435 39.5495 63.4961 39.532 63.5673C39.4876 63.6199 39.434 63.6023 39.3897 63.6023C39.3897 63.5765 39.3989 63.5497 39.3897 63.5229C39.3546 63.4879 39.302 63.4786 39.2752 63.4435C39.2391 63.3992 39.2133 63.3198 39.2216 63.2661C39.2308 63.1506 39.3814 63.1063 39.4783 63.098C39.4526 63.0269 39.434 62.9557 39.4082 62.8681C39.4258 62.8237 39.4526 62.7794 39.4783 62.7258C39.4701 62.6814 39.4526 62.6371 39.434 62.5845C39.4608 62.5577 39.4959 62.5226 39.5227 62.4865C39.5938 62.5051 39.6289 62.5494 39.665 62.602C39.7093 62.6639 39.7795 62.7258 39.8331 62.7794C39.8413 62.832 39.8331 62.8681 39.8156 62.8939ZM39.7795 62.5927C39.7888 62.5226 39.8413 62.5669 39.8682 62.5845C39.8506 62.602 39.7795 62.6639 39.7795 62.5927ZM40.1157 59.202C40.0806 59.1927 40.0806 59.1927 40.0723 59.1669C40.1074 59.1576 40.1074 59.1752 40.1157 59.202ZM40.1425 62.6113C40.1249 62.6288 40.0981 62.6288 40.0806 62.6371C40.0538 62.6371 40.0094 62.6195 40.0094 62.5845C40.0187 62.5133 40.1342 62.5226 40.16 62.5752C40.1518 62.5927 40.1518 62.602 40.1425 62.6113ZM40.4168 62.6989C40.3817 62.6989 40.3642 62.6907 40.3467 62.6556C40.3374 62.6371 40.3291 62.6113 40.3549 62.5927C40.4085 62.5669 40.4261 62.6639 40.4168 62.6989ZM40.6292 62.7258C40.6292 62.7082 40.6385 62.6556 40.6653 62.6639C40.6921 62.6814 40.6385 62.7175 40.6292 62.7258ZM40.9572 62.7175C40.9396 62.7082 40.9046 62.6814 40.9128 62.6556C40.9128 62.6195 40.9396 62.6288 40.9664 62.6288C40.9747 62.6288 41.0015 62.6371 41.0108 62.6464C41.019 62.6556 41.019 62.6732 41.0283 62.6907C41.0015 62.7082 40.9933 62.7258 40.9572 62.7175ZM41.3294 63.0362C41.3202 63.063 41.2408 63.1063 41.25 63.0537C41.2583 63.0186 41.347 63.0186 41.3294 63.0362ZM41.4181 62.7082L41.3996 62.6989L41.4181 62.6907V62.7082ZM41.7193 63.1063C41.6924 63.1063 41.613 63.1249 41.5945 63.098C41.5687 63.0537 41.6749 63.0362 41.6924 63.0362C41.7543 63.0362 41.8162 63.0444 41.8698 63.0444C41.8337 63.0805 41.7811 63.098 41.7193 63.1063ZM41.6388 62.7701C41.6563 62.7526 41.6563 62.7619 41.6656 62.7876C41.6656 62.7876 41.6563 62.7876 41.6563 62.7969C41.6481 62.7876 41.6388 62.7794 41.6388 62.7701ZM42.1699 62.6989C42.1699 62.6989 42.1699 62.6907 42.1617 62.6814C42.1792 62.6814 42.1792 62.6814 42.1885 62.6989C42.1792 62.6989 42.1792 62.6989 42.1699 62.6989ZM42.7278 62.6814C42.7371 62.6639 42.7371 62.6639 42.7546 62.6732C42.7464 62.6907 42.7464 62.6907 42.7278 62.6814ZM42.7278 61.9204C42.5515 62.1153 42.3205 62.2483 42.0637 62.3102C41.8956 62.3545 41.71 62.3545 41.5326 62.3545C41.3377 62.3545 41.1428 62.3545 40.9489 62.3545C40.7623 62.3545 40.5673 62.3545 40.3817 62.3545C40.2848 62.3545 40.1961 62.3545 40.0981 62.3452C40.0631 62.3359 40.028 62.3359 40.0187 62.3009C40.0012 62.2658 40.0012 62.2215 40.0012 62.1854C39.9837 61.9998 39.9919 61.8049 39.9919 61.6192C39.9919 61.4243 39.9919 61.2387 39.9919 61.0438C39.9919 60.9551 39.9919 60.8582 39.9919 60.7602C39.9919 60.5746 39.9919 60.3797 39.9919 60.194C39.9919 60.1054 39.9919 60.0167 40.0012 59.9187C40.0094 59.8836 40.0012 59.831 40.028 59.7949C40.0538 59.7681 40.0899 59.7681 40.1249 59.7681C40.2229 59.7506 40.3106 59.7599 40.4085 59.7599C40.5055 59.7599 40.5942 59.7599 40.6921 59.7599C40.8778 59.7599 41.0727 59.7599 41.2583 59.7599C41.6213 59.7599 41.976 59.7331 42.3122 59.8929C42.5515 60.0074 42.7546 60.194 42.8877 60.424C43.162 60.8932 43.0908 61.513 42.7278 61.9204ZM42.8526 63.0712C42.8526 63.0537 42.8701 63.0444 42.8877 63.0444C42.8969 63.0444 42.8969 63.063 42.9052 63.0805C42.8969 63.1156 42.8433 63.1063 42.8526 63.0712ZM42.9052 62.8144C42.8969 62.8237 42.8877 62.832 42.8784 62.8413C42.8526 62.7969 42.8701 62.7969 42.9052 62.8144ZM42.9495 62.6814C42.932 62.6732 42.9052 62.6556 42.9052 62.6288C42.9145 62.5494 43.0032 62.5752 43.0114 62.6371C42.9939 62.6556 42.9846 62.6814 42.9495 62.6814ZM43.0114 62.372C42.9671 62.3102 42.8877 62.3277 42.834 62.2834C42.8165 62.239 42.8258 62.1771 42.8701 62.1503C42.8969 62.1235 42.9495 62.1328 42.9846 62.1421C43.1094 62.1771 43.065 62.2926 43.0114 62.372Z" fill="#E5EFF2"/>
<path d="M50.8659 64.1334C50.8659 64.0633 50.8659 63.9921 50.8659 63.9303C50.8659 63.8766 50.8659 63.824 50.8299 63.7797C50.7855 63.7446 50.7061 63.7529 50.6535 63.7446C50.5916 63.7446 50.5287 63.7446 50.4669 63.7446C50.1925 63.7446 49.9275 63.7446 49.6522 63.7446C49.1035 63.7446 48.5549 63.7446 48.0053 63.7446C47.7309 63.7446 47.4566 63.7446 47.1823 63.7446C47.0493 63.7446 46.9163 63.7529 46.7843 63.7261C46.6595 63.7003 46.6956 63.5054 46.6956 63.4167C46.6956 63.1424 46.6956 62.8763 46.6956 62.602C46.6956 62.5051 46.6688 62.3277 46.8018 62.3184C46.9348 62.3102 47.0668 62.3102 47.1999 62.3102C47.7402 62.3102 48.2889 62.3102 48.8385 62.3102C48.9798 62.3102 49.1128 62.3102 49.2541 62.3102C49.3253 62.3102 49.3871 62.3102 49.4583 62.3102C49.5109 62.3102 49.582 62.3184 49.6346 62.3009C49.6965 62.2834 49.7058 62.2297 49.7058 62.1771C49.7058 62.1153 49.7058 62.0616 49.7151 61.9998C49.7151 61.8585 49.7151 61.7254 49.7151 61.5924C49.7151 61.4955 49.7151 61.4068 49.7058 61.3181C49.7058 61.2738 49.6883 61.2294 49.6522 61.2119C49.5996 61.1851 49.5284 61.1944 49.4758 61.1944C49.3428 61.1944 49.2098 61.1944 49.0767 61.1944C48.5374 61.1944 47.997 61.1944 47.4484 61.1944C47.3154 61.1944 47.173 61.1944 47.0318 61.1944C46.9524 61.1944 46.8369 61.2119 46.7657 61.1768C46.7038 61.15 46.6956 61.0881 46.6956 61.0345C46.6863 60.9108 46.6956 60.7777 46.6956 60.654C46.6956 60.5209 46.6956 60.3797 46.6956 60.2466C46.6956 60.1229 46.678 59.9991 46.7038 59.8754C46.7131 59.8218 46.7399 59.7774 46.8018 59.7681C46.9163 59.7424 47.041 59.7599 47.1555 59.7599C47.6959 59.7599 48.2445 59.7599 48.7942 59.7599C49.3335 59.7599 49.8832 59.7599 50.4225 59.7599C50.4937 59.7599 50.5648 59.7599 50.6442 59.7599C50.6886 59.7599 50.7597 59.7599 50.8041 59.7331C50.8928 59.6805 50.8659 59.5114 50.8659 59.4319C50.8659 59.1576 50.8659 58.8833 50.8659 58.609C49.1035 58.609 47.3504 58.609 45.5973 58.609C45.5973 58.8833 45.5973 59.1484 45.5973 59.4144C45.5973 60.5034 45.5973 61.6017 45.5973 62.6907C45.5973 63.2393 45.5973 63.789 45.5973 64.3376C45.5973 64.4706 45.588 64.5944 45.6066 64.7274C45.6148 64.8687 45.7654 64.8419 45.8716 64.8512C46.1459 64.8512 46.412 64.8512 46.6863 64.8512C47.7846 64.8512 48.8736 64.8512 49.9719 64.8512C50.1039 64.8512 50.2369 64.8512 50.3699 64.8512C50.5029 64.8512 50.6442 64.8604 50.7773 64.8336C50.8928 64.8161 50.8659 64.6294 50.8659 64.55C50.8659 64.4088 50.8659 64.2664 50.8659 64.1334ZM48.9086 61.8317C48.9262 61.8585 48.9354 61.8667 48.9086 61.876C48.9004 61.8492 48.8911 61.8409 48.9086 61.8317ZM48.6168 61.6017C48.7137 61.6192 48.6436 61.7254 48.6168 61.7698C48.5817 61.743 48.5374 61.7079 48.5013 61.6729C48.5106 61.6192 48.5632 61.5924 48.6168 61.6017ZM48.5013 61.9204C48.5188 61.8935 48.5456 61.9379 48.5632 61.9554C48.5374 61.9472 48.4745 61.9472 48.5013 61.9204ZM48.2363 61.9111C48.262 61.9472 48.262 61.9554 48.2445 61.9998C48.227 61.9998 48.2094 61.9822 48.2002 61.9647C48.2002 61.9379 48.2177 61.9296 48.2363 61.9111ZM47.7485 61.8317C47.8021 61.7605 47.864 61.6904 47.9259 61.6192C47.9351 61.6636 47.9527 61.6986 47.9619 61.7347C47.9795 61.7698 47.997 61.7873 48.0321 61.8049C48.0682 61.8317 48.0589 61.8667 48.0321 61.8935C48.0053 61.9204 47.9702 61.9296 47.9351 61.9296C47.8815 61.9296 47.6866 61.9296 47.7485 61.8317ZM47.6959 61.6811C47.6959 61.6986 47.6959 61.7162 47.6959 61.7254C47.6866 61.7254 47.6691 61.7254 47.6515 61.7254C47.6691 61.7079 47.6866 61.6986 47.6959 61.6811ZM47.4484 61.6543C47.5185 61.6543 47.5897 61.6986 47.6515 61.7254C47.5278 61.7873 47.4123 61.7873 47.2885 61.7254C47.3329 61.6986 47.3948 61.6543 47.4484 61.6543ZM47.2793 61.7162C47.271 61.7079 47.271 61.6986 47.2617 61.6904C47.271 61.6986 47.2793 61.7079 47.2793 61.7162ZM46.5976 61.6811C46.5625 61.6811 46.5533 61.6811 46.5357 61.6543C46.5625 61.6285 46.5801 61.6543 46.5976 61.6811ZM46.1552 60.9551C46.1727 60.9458 46.182 60.9726 46.1903 60.9902C46.1903 61.0087 46.1903 61.0438 46.1645 61.052C46.1459 61.052 46.1377 61.0345 46.1377 61.017C46.1284 60.9994 46.1284 60.9644 46.1552 60.9551ZM46.1903 61.2562C46.182 61.2562 46.182 61.2655 46.182 61.2655C46.1645 61.2655 46.1645 61.2655 46.1727 61.2469C46.1727 61.2469 46.182 61.2469 46.1903 61.2562ZM46.1377 60.7251C46.1284 60.7334 46.1201 60.7427 46.1201 60.7427C46.0933 60.7076 46.1016 60.6983 46.1377 60.7251ZM45.9428 61.283C45.9954 61.2913 45.951 61.3624 45.9335 61.38C45.9252 61.3624 45.8809 61.2738 45.9428 61.283ZM45.8809 61.6811C45.8809 61.6543 45.8809 61.6285 45.8984 61.6017C45.9077 61.5749 45.9159 61.5749 45.9335 61.5749C45.951 61.6285 45.9871 61.6811 45.9778 61.7347C45.9778 61.7698 45.9696 61.8409 45.9252 61.8317C45.8809 61.8141 45.8809 61.7254 45.8809 61.6811ZM45.7303 62.0534C45.7829 62.0359 45.8004 61.9729 45.8448 61.9472C45.8891 61.9296 45.9335 61.9729 45.9603 61.9998C45.9159 62.0441 45.8634 62.1328 45.8004 62.1503C45.7303 62.1679 45.7128 62.106 45.7303 62.0534ZM45.9077 62.9207C45.8891 62.9124 45.8891 62.9124 45.8984 62.8939C45.9159 62.9031 45.9077 62.9031 45.9077 62.9207ZM45.9954 63.5054C45.9871 63.5054 45.9778 63.4961 45.9696 63.4879C45.9778 63.4786 45.9954 63.4435 46.0046 63.4435C46.0139 63.4435 46.0314 63.461 46.0397 63.461C46.0314 63.4693 46.0046 63.5054 45.9954 63.5054ZM45.8541 62.7969C45.7654 62.6639 45.7829 62.5577 45.8809 62.4514C45.9428 62.4246 45.9954 62.4514 46.049 62.5051C46.049 62.5669 46.0665 62.6288 46.084 62.6907C46.0933 62.7175 46.1016 62.7433 46.1109 62.7701C46.1201 62.7876 46.1377 62.8144 46.1377 62.832C46.1284 62.9475 45.8984 62.8144 45.8541 62.7969ZM46.0222 62.2122C46.0139 62.1854 46.0139 62.1421 46.0046 62.106C45.9954 62.0709 45.9778 62.0359 45.9603 61.9998C46.0222 61.9554 46.084 61.9111 46.1377 61.8667C46.1016 61.7791 46.1109 61.6543 46.1903 61.5842C46.2171 61.5656 46.2614 61.5656 46.2521 61.6099C46.2521 61.6636 46.2171 61.7079 46.2078 61.7605C46.2264 61.7698 46.2346 61.7791 46.2521 61.7873C46.2789 61.7966 46.314 61.8049 46.3408 61.8049C46.3944 61.8224 46.4388 61.8317 46.4914 61.8317C46.5801 61.8224 46.5894 61.7605 46.6069 61.6811C46.6595 61.6368 46.7482 61.5481 46.8193 61.5924C46.8461 61.6099 46.8719 61.646 46.8812 61.6811C46.8812 61.7162 46.8544 61.743 46.8369 61.7698C46.8193 61.8141 46.8018 61.8585 46.7843 61.9028C46.7657 61.9379 46.7574 61.9915 46.7214 62.0173C46.6688 62.0359 46.6244 61.9729 46.5533 61.9822C46.5007 61.9998 46.4563 62.0266 46.4027 62.0441C46.3584 62.0709 46.314 62.0977 46.3676 62.1421C46.3408 62.1947 46.314 62.2658 46.2346 62.2297C46.2171 62.2215 46.2078 62.2039 46.1903 62.1854C46.1552 62.2039 46.0572 62.2834 46.0222 62.2122ZM46.2346 62.4865H46.2264V62.4783L46.2346 62.4865ZM46.2346 62.9825C46.2171 62.9743 46.2264 62.9557 46.2439 62.965C46.2439 62.9743 46.2439 62.9825 46.2346 62.9825ZM46.1995 62.6639C46.182 62.6371 46.1903 62.6195 46.2171 62.602C46.2789 62.5669 46.3058 62.6371 46.3233 62.6907C46.2882 62.6814 46.2264 62.6814 46.1995 62.6639ZM46.3944 64.1159C46.3676 64.1427 46.314 64.1427 46.2789 64.152C46.2882 64.1159 46.2882 64.054 46.314 64.0189C46.3326 63.9829 46.3584 64.0014 46.3769 64.0272C46.3944 64.054 46.4213 64.0901 46.3944 64.1159ZM46.4388 62.7794C46.4295 62.8237 46.3944 62.832 46.3676 62.8062C46.3408 62.7794 46.3326 62.735 46.3326 62.6907C46.3944 62.6814 46.4646 62.6989 46.4388 62.7794ZM46.5976 62.2215C46.5801 62.2834 46.5625 62.3452 46.4831 62.3359C46.4027 62.3277 46.4295 62.2483 46.447 62.1854C46.4295 62.1503 46.4027 62.1503 46.3769 62.1421C46.412 62.106 46.5007 62.0709 46.5533 62.0792C46.6244 62.0884 46.6069 62.1679 46.5976 62.2215ZM46.7131 64.0365C46.6863 64.0365 46.6512 64.0272 46.6419 64.0014C46.6337 63.9746 46.6512 63.9478 46.678 63.9478C46.7038 63.9478 46.7306 63.9653 46.7482 63.9829C46.7574 64.0189 46.7306 64.0272 46.7131 64.0365ZM47.2174 64.4789C47.1916 64.4964 47.1112 64.417 47.0936 64.3995C47.0761 64.3902 47.0493 64.3644 47.041 64.3551C47.041 64.3376 47.0586 64.3108 47.0586 64.3025V64.2933C47.1029 64.3201 47.1555 64.3376 47.1916 64.3727C47.1999 64.3902 47.2442 64.4614 47.2174 64.4789ZM47.4298 64.3644C47.3855 64.3469 47.3236 64.3025 47.3236 64.2489C47.3154 64.1963 47.3772 64.187 47.4123 64.187C47.4566 64.187 47.5103 64.2396 47.5103 64.2757C47.5185 64.3283 47.4917 64.3819 47.4298 64.3644ZM48.0589 64.0715L48.0682 64.054L48.0764 64.0715H48.0589ZM48.4126 64.3551C48.3951 64.3727 48.3775 64.3902 48.3507 64.3819C48.3332 64.3727 48.3332 64.3727 48.3332 64.3469C48.3425 64.3283 48.36 64.3108 48.3683 64.284C48.3868 64.2664 48.3868 64.2396 48.3868 64.2221C48.3951 64.2046 48.4044 64.187 48.4219 64.187C48.4487 64.187 48.4487 64.2139 48.4569 64.2314C48.4662 64.284 48.4394 64.3283 48.4126 64.3551ZM48.6075 64.4345C48.5817 64.4531 48.5817 64.4088 48.5724 64.3902C48.59 64.3995 48.6343 64.417 48.6075 64.4345ZM48.5374 64.0808C48.5281 64.0097 48.6075 63.9829 48.6611 63.9921C48.7313 64.0097 48.7674 64.0901 48.8024 64.1427C48.723 64.1695 48.5632 64.2139 48.5374 64.0808ZM46.1459 61.8667C46.1377 61.8667 46.1377 61.8667 46.1377 61.8667H46.1459ZM46.2614 61.9554C46.2614 61.9296 46.2614 61.9204 46.2346 61.9028C46.1995 61.8935 46.1727 61.8853 46.1459 61.8667C46.1552 61.8935 46.1727 61.9204 46.1903 61.9379C46.2171 61.9554 46.2346 61.9554 46.2614 61.9554ZM46.8276 61.7698C46.8369 61.7698 46.8369 61.7698 46.8369 61.7698H46.8276ZM46.7131 61.7698C46.7131 61.7966 46.8018 61.7791 46.8276 61.7698C46.8018 61.7605 46.7131 61.7254 46.7131 61.7698Z" fill="#E5EFF2"/>
<path d="M57.5772 64.284C57.5772 64.0808 57.5772 63.8684 57.5772 63.6559C57.5772 62.8144 57.5772 61.9729 57.5772 61.1325C57.5772 60.3003 57.5596 59.4495 57.5957 58.609C57.2142 58.609 56.8254 58.609 56.4438 58.609C56.4613 58.9627 56.4613 59.3175 56.4613 59.6712C56.4613 60.0249 56.4613 60.3797 56.4613 60.7427C56.4613 61.3717 56.4613 62.009 56.4613 62.6464C56.4613 62.7258 56.4706 62.8062 56.4613 62.8939C56.4613 62.9382 56.4531 63.0269 56.3912 62.9825C56.3293 62.9475 56.2932 62.8588 56.2582 62.8062C56.2138 62.7433 56.1695 62.6732 56.1344 62.6113C55.9663 62.3452 55.7982 62.0792 55.6291 61.8049C55.2929 61.2738 54.9475 60.7334 54.6113 60.2023C54.4432 59.9373 54.2751 59.6619 54.107 59.3969C54.0183 59.2639 53.9296 59.1308 53.8502 58.9978C53.8059 58.9277 53.7615 58.8658 53.7172 58.7946C53.6997 58.7678 53.6811 58.7328 53.6636 58.6977C53.6553 58.6709 53.6553 58.6441 53.6553 58.609C53.1943 58.609 52.7344 58.609 52.2827 58.609C52.2827 58.7059 52.291 58.8039 52.291 58.8916C52.3002 59.6619 52.291 60.4323 52.291 61.2026C52.291 61.9647 52.291 62.735 52.291 63.5054C52.291 63.8859 52.2827 64.2664 52.291 64.647C52.291 64.7181 52.2827 64.8068 52.3621 64.8336C52.4508 64.8604 52.557 64.8512 52.6457 64.8512C52.8313 64.8512 53.0262 64.8512 53.2119 64.8419C53.2923 64.8419 53.381 64.8419 53.3985 64.7532C53.4161 64.6655 53.4068 64.5676 53.4068 64.4789C53.4068 64.2933 53.4068 64.0984 53.4068 63.9127C53.4068 63.5229 53.4068 63.1424 53.4068 62.7619C53.4068 62.372 53.4068 61.9915 53.4068 61.6099C53.4068 61.4161 53.4068 61.2294 53.4068 61.0345C53.4068 60.9376 53.4068 60.8396 53.4068 60.7427C53.4068 60.6983 53.4068 60.654 53.3985 60.6096C53.3892 60.5746 53.3717 60.5385 53.3624 60.5034C53.3892 60.4952 53.4161 60.4859 53.4511 60.4766C53.513 60.557 53.5666 60.6272 53.6192 60.7159C54.0627 61.4161 54.5051 62.1235 54.9567 62.8237C55.1774 63.1774 55.4084 63.5322 55.6291 63.8952C55.7446 64.0715 55.8601 64.2489 55.9663 64.417C56.0282 64.5057 56.0808 64.5944 56.1344 64.6831C56.187 64.7532 56.2231 64.8336 56.3201 64.8419C56.418 64.8512 56.5242 64.8512 56.6212 64.8512C56.7274 64.8512 56.8336 64.8512 56.9316 64.8512C57.0378 64.8512 57.144 64.8512 57.241 64.8512C57.2946 64.8512 57.3472 64.8512 57.4008 64.8512C57.4359 64.8419 57.4885 64.8419 57.5246 64.8244C57.5957 64.7893 57.5772 64.6655 57.5772 64.5944C57.5772 64.4964 57.5772 64.3902 57.5772 64.284ZM52.9107 60.0167C52.92 60.0167 52.9293 60.0249 52.9293 60.0249C52.9293 60.0342 52.9293 60.0342 52.92 60.0435C52.9025 60.0342 52.9025 60.0342 52.9107 60.0167ZM52.9468 60.6096C52.9468 60.6189 52.9468 60.6272 52.9376 60.6272C52.92 60.6189 52.92 60.6189 52.9293 60.6014C52.9376 60.6096 52.9376 60.6096 52.9468 60.6096ZM52.9107 59.8486C52.9025 59.8486 52.8932 59.8486 52.8932 59.8486C52.8932 59.8486 52.8932 59.8393 52.885 59.8393C52.9025 59.831 52.9025 59.831 52.9107 59.8486ZM52.8582 60.1579C52.885 60.1848 52.9025 60.1848 52.9025 60.2291C52.8932 60.2466 52.8932 60.2817 52.8757 60.291C52.8406 60.3003 52.8406 60.2559 52.8313 60.2384C52.8231 60.194 52.8313 60.194 52.8582 60.1579ZM52.7695 59.928C52.7602 59.9548 52.7427 59.9104 52.7427 59.9012C52.7519 59.9012 52.7787 59.9012 52.7695 59.928ZM52.885 62.2215C52.8582 62.1947 52.8932 62.1771 52.9107 62.1679C52.92 62.1854 52.92 62.1947 52.9293 62.2039C52.9107 62.2215 52.9025 62.2483 52.885 62.2215ZM52.8757 61.2294C52.8489 61.2387 52.7963 61.2294 52.787 61.1944C52.7695 61.1593 52.8313 61.1407 52.8489 61.1325C52.8757 61.1407 52.9468 61.15 52.9468 61.1851C52.9468 61.2212 52.9025 61.2294 52.8757 61.2294ZM53.9915 60.6364C53.974 60.6189 53.9647 60.6096 53.9647 60.5828C53.974 60.5653 53.9822 60.5478 54.0008 60.5385C54.0183 60.5478 54.0183 60.5653 54.0183 60.5921C54.0183 60.6189 54.009 60.6189 53.9915 60.6364ZM54.2483 60.6808C54.2307 60.6983 54.1947 60.6983 54.1771 60.6808C54.1596 60.6633 54.1513 60.6272 54.1596 60.6096C54.1771 60.5746 54.2132 60.5828 54.2483 60.5828C54.2483 60.6096 54.2658 60.654 54.2483 60.6808ZM54.2483 60.5828C54.239 60.557 54.2215 60.5302 54.2307 60.5034C54.2483 60.4766 54.3102 60.4591 54.337 60.4508C54.3452 60.5478 54.337 60.5478 54.2483 60.5828ZM54.4607 60.9025L54.47 60.8932L54.4782 60.9025H54.4607ZM55.1774 62.4607C55.1599 62.4607 55.1517 62.4339 55.1517 62.4164C55.1517 62.4071 55.1599 62.3803 55.1774 62.3803C55.196 62.3803 55.2135 62.4164 55.2218 62.4246C55.2135 62.4422 55.2042 62.469 55.1774 62.4607ZM56.4974 64.5944C56.4613 64.6037 56.4263 64.5944 56.3912 64.5851C56.418 64.5676 56.55 64.4882 56.55 64.55C56.5593 64.5769 56.515 64.5944 56.4974 64.5944ZM56.7099 64.6294C56.6923 64.6387 56.6831 64.6119 56.6831 64.5851C56.6748 64.5676 56.6748 64.5325 56.7006 64.5232C56.7181 64.515 56.7367 64.55 56.7542 64.5676C56.7449 64.5851 56.7449 64.6294 56.7099 64.6294ZM57.0378 64.6655V64.6563L57.0461 64.6655H57.0378ZM57.3028 64.5769C57.241 64.6212 57.1884 64.5944 57.1347 64.55C57.0822 64.5057 57.0192 64.5232 56.9667 64.4964C56.913 64.4614 56.8872 64.3995 56.8604 64.3469C56.8254 64.3376 56.7893 64.3469 56.7717 64.3819C56.6305 64.3551 56.4974 64.3283 56.3551 64.3108C56.2932 64.3108 56.2231 64.3108 56.1612 64.3108C56.1252 64.3108 56.0901 64.3025 56.055 64.2933C55.9839 64.2582 55.9571 64.1602 55.9478 64.0901C55.9395 64.054 55.9395 64.0189 55.9395 63.9921C55.9478 63.9571 55.9571 63.9303 55.9571 63.8952C55.9663 63.8416 55.9395 63.7797 55.9127 63.7261C55.9839 63.6116 55.9839 63.6116 55.9839 63.5229C55.9127 63.4786 55.8333 63.4342 55.7622 63.3899C55.7353 63.3724 55.7003 63.3548 55.6652 63.3548C55.6384 63.3455 55.5941 63.3548 55.5672 63.3373C55.5229 63.3012 55.5497 63.2311 55.5848 63.195C55.6209 63.1599 55.6827 63.1692 55.6735 63.1063C55.7096 63.1249 55.7353 63.1599 55.7539 63.195C55.7714 63.2218 55.789 63.2661 55.8333 63.2754C55.8777 63.2837 55.8952 63.2311 55.9302 63.2043C55.9571 63.1774 55.9921 63.1867 56.0365 63.195C56.0282 63.2311 56.0189 63.2661 56.0365 63.3012C56.055 63.3373 56.0726 63.3724 56.0901 63.4074C56.1076 63.4693 56.0808 63.5848 56.1788 63.558C56.1788 63.5497 56.1788 63.5322 56.1788 63.5136C56.1963 63.4342 56.2231 63.3816 56.2932 63.3373C56.3201 63.3198 56.3469 63.2929 56.3737 63.2661C56.3912 63.2311 56.3995 63.195 56.418 63.1692C56.4706 63.1063 56.5768 63.1249 56.6387 63.1424C56.7274 63.1692 56.7893 63.2311 56.8604 63.2837C56.913 63.2661 56.9491 63.2486 56.9842 63.2125C57.0192 63.1867 57.0461 63.1506 57.0904 63.1331C57.1698 63.1063 57.1884 63.1506 57.2234 63.2125C57.276 63.2486 57.3389 63.1599 57.3915 63.2218C57.4266 63.2754 57.3565 63.3012 57.3204 63.328C57.2678 63.3631 57.241 63.3992 57.2142 63.4518C57.1791 63.5136 57.1255 63.558 57.0904 63.6023C57.0461 63.6467 57.0192 63.691 56.9935 63.7446C56.9667 63.789 56.9316 63.824 56.8955 63.8684C56.7893 63.9034 56.6748 63.8684 56.5686 63.8859C56.5325 63.9127 56.5418 63.9478 56.55 63.9829C56.5686 64.0189 56.5944 64.0365 56.6387 64.0458C56.7274 64.0633 56.8161 64.0901 56.8955 64.1334C57.0017 64.1334 57.0285 64.0272 57.1172 64.0014C57.1347 64.0189 57.1616 64.0365 57.1884 64.054C57.2142 64.0365 57.276 63.9829 57.3121 64.0272C57.3389 64.0633 57.2946 64.1159 57.2853 64.1427C57.2502 64.2221 57.3028 64.2489 57.3647 64.2933C57.3389 64.3108 57.2853 64.3283 57.2853 64.3644C57.2853 64.4088 57.3389 64.3902 57.3647 64.3902C57.3822 64.4614 57.3565 64.5325 57.3028 64.5769ZM57.2946 62.9031C57.3121 62.9124 57.3472 62.9299 57.3472 62.9557C57.3472 62.9743 57.3389 62.9825 57.3204 62.9825C57.2946 62.9825 57.276 62.965 57.2678 62.9475C57.2678 62.9207 57.276 62.9207 57.2946 62.9031ZM57.1884 63.6023C57.2059 63.5941 57.2142 63.5848 57.2234 63.5765C57.2142 63.5941 57.2059 63.5941 57.1884 63.6023ZM57.1523 63.7972C57.0904 63.8509 57.0378 63.7972 57.0017 63.7446C57.0378 63.7085 57.0729 63.6642 57.0904 63.6116C57.1172 63.6116 57.1523 63.6116 57.1791 63.6116C57.2059 63.6735 57.2234 63.7529 57.1523 63.7972ZM57.3647 64.3819C57.3647 64.3551 57.3647 64.3283 57.3647 64.3025C57.374 64.3283 57.374 64.3551 57.3647 64.3819ZM57.3204 63.8333C57.3389 63.7972 57.3647 63.7178 57.4008 63.7446C57.4183 63.7704 57.3472 63.8148 57.3204 63.8333ZM57.4008 62.7876C57.3389 62.7175 57.3028 62.6639 57.2585 62.6113C57.3028 62.5494 57.3822 62.5752 57.4091 62.6371C57.4266 62.6907 57.4091 62.735 57.4008 62.7876ZM57.0636 64.2489C56.9842 64.2489 56.9398 64.3819 57.0378 64.3819C57.0997 64.3819 57.1172 64.2664 57.0636 64.2489Z" fill="#E5EFF2"/>
<path d="M64.2899 58.609C62.5182 58.609 60.7476 58.609 58.9769 58.609C58.9769 58.7596 58.9852 58.9009 58.9852 59.0421C58.9852 59.1927 58.9852 59.3433 58.9852 59.4938C58.9852 59.5557 58.9594 59.698 59.0388 59.7424C59.0831 59.7599 59.1275 59.7599 59.1718 59.7599C59.2512 59.7599 59.3224 59.7599 59.3925 59.7599C59.5524 59.7599 59.7029 59.7599 59.8535 59.7599C60.1629 59.7599 60.4733 59.7506 60.7826 59.7599C60.8631 59.7599 61.0136 59.7331 61.058 59.831C61.0838 59.8836 61.0838 59.9548 61.0838 60.0167C61.0838 60.0961 61.0838 60.1672 61.0838 60.2384C61.0838 61.4779 61.0838 62.7082 61.0838 63.9395C61.0838 64.0984 61.0838 64.2582 61.0838 64.417C61.0838 64.4882 61.0755 64.5676 61.0838 64.6387C61.0838 64.6913 61.0755 64.7625 61.1106 64.7975C61.1549 64.8512 61.2261 64.8512 61.288 64.8512C61.3591 64.8512 61.4292 64.8512 61.5004 64.8512C61.651 64.8512 61.8098 64.8512 61.9696 64.8512C62.0758 64.8512 62.1645 64.8336 62.1728 64.7181C62.1821 64.5769 62.1821 64.4263 62.1821 64.284C62.1821 63.9653 62.1821 63.6559 62.1821 63.3455C62.1821 62.735 62.1821 62.1153 62.1821 61.5037C62.1821 61.1944 62.1821 60.8839 62.1728 60.5653C62.1728 60.4147 62.1728 60.2642 62.1728 60.1136C62.1728 60.0435 62.1728 59.9723 62.1821 59.9104C62.1821 59.8754 62.1913 59.8393 62.2089 59.8125C62.2615 59.7424 62.3852 59.7599 62.4564 59.7599C62.6069 59.7599 62.7575 59.7599 62.9081 59.7599C63.2185 59.7599 63.5278 59.7599 63.8465 59.7599C63.9259 59.7599 64.0063 59.7599 64.0857 59.7599C64.1301 59.7599 64.1744 59.7599 64.2095 59.7424C64.2899 59.7063 64.2714 59.5743 64.2714 59.5114C64.2714 59.2113 64.2714 58.9101 64.2899 58.609ZM61.2436 62.239H61.2343C61.2436 62.239 61.2436 62.239 61.2436 62.239ZM61.9428 58.8483C61.9346 58.8833 61.9346 58.9009 61.8985 58.9101C61.8809 58.874 61.916 58.8658 61.9428 58.8483ZM61.8459 59.7331L61.8366 59.7424L61.8283 59.7331H61.8459ZM61.916 60.326C61.9346 60.3621 61.8985 60.3704 61.8809 60.3889C61.8459 60.4065 61.8283 60.4147 61.8098 60.3797C61.8283 60.3529 61.8985 60.2817 61.916 60.326ZM61.6334 59.0246C61.6149 59.0339 61.6149 59.0339 61.6149 59.0164C61.6149 59.0071 61.6241 59.0071 61.6334 59.0071C61.6334 59.0164 61.6334 59.0164 61.6334 59.0246ZM61.3942 61.9296C61.3591 61.9472 61.3591 61.9472 61.3498 61.9111C61.3849 61.8935 61.3766 61.8935 61.3942 61.9296ZM61.3323 62.4514C61.3055 62.4164 61.3323 62.3803 61.3591 62.3628C61.3942 62.3452 61.4468 62.3628 61.4911 62.372C61.4736 62.4339 61.3942 62.5309 61.3323 62.4514ZM61.4736 59.0071C61.4561 59.0164 61.421 59.0514 61.4024 59.0514C61.3674 59.0421 61.3766 59.0071 61.3849 58.9895C61.421 58.8916 61.5086 58.8039 61.6149 58.8483C61.5798 58.9101 61.5272 58.9627 61.4736 59.0071ZM61.5716 61.9379C61.5623 61.9379 61.5447 61.9296 61.5447 61.9111C61.5447 61.9028 61.553 61.8853 61.5623 61.8853C61.5798 61.876 61.5891 61.8935 61.6066 61.9028C61.5973 61.9204 61.5891 61.9379 61.5716 61.9379ZM61.686 62.6113C61.6685 62.5927 61.651 62.5752 61.6334 62.5669C61.6241 62.5494 61.5973 62.5401 61.5891 62.5226C61.5891 62.5051 61.5973 62.4865 61.6066 62.4783C61.6241 62.469 61.6417 62.4783 61.6592 62.4865C61.7128 62.5051 61.7654 62.5309 61.8098 62.5577C61.8459 62.6113 61.8191 62.6464 61.8098 62.6907C61.7654 62.6732 61.7221 62.6371 61.686 62.6113ZM61.8902 62.735C61.8716 62.7701 61.8283 62.7082 61.8098 62.6907C61.8366 62.6907 61.9077 62.6989 61.8902 62.735ZM61.916 62.4071C61.8809 62.3989 61.8716 62.3989 61.8634 62.3628C61.8541 62.3277 61.8634 62.2926 61.8716 62.2565C61.8902 62.2834 61.8985 62.3102 61.916 62.3359C61.9253 62.3628 61.9253 62.3803 61.916 62.4071ZM61.9789 61.9296C61.9789 61.9915 62.049 62.0173 62.049 62.0792C62.0408 62.1328 61.9603 62.1503 61.916 62.1596C61.9077 62.1421 61.8902 62.1421 61.8809 62.1235C61.8634 62.1153 61.8634 62.0884 61.8459 62.0709C61.8283 62.0441 61.8098 62.009 61.784 61.9822C61.7572 61.9472 61.6592 61.876 61.7479 61.8585C61.7922 61.8492 61.8366 61.8409 61.8809 61.8317C61.916 61.8317 61.9696 61.8141 61.9964 61.8224C62.0222 61.8317 62.0583 61.8492 62.0583 61.876C62.0583 61.9111 62.0047 61.9204 61.9789 61.9296ZM62.147 58.8297C62.1552 58.8658 62.1552 58.8658 62.1284 58.8833C62.1109 58.8483 62.1202 58.8483 62.147 58.8297ZM62.1552 59.2195C62.147 59.2113 62.1284 59.202 62.1284 59.1844C62.1284 59.1752 62.147 59.1669 62.1552 59.1576C62.1645 59.1669 62.1913 59.1752 62.1913 59.1927C62.1913 59.2113 62.1728 59.2195 62.1552 59.2195Z" fill="#E5EFF2"/>
<path d="M66.8127 63.9571C66.8127 63.0712 66.8127 62.1771 66.8127 61.283C66.8127 60.3972 66.7951 59.5031 66.8219 58.609C66.4414 58.609 66.0609 58.609 65.6793 58.609C65.6793 58.7152 65.6886 58.8214 65.6979 58.9277C65.6979 59.8218 65.6979 60.7159 65.6979 61.6099C65.6979 62.4958 65.6979 63.3899 65.6979 64.2757C65.6979 64.3902 65.6886 64.4964 65.6979 64.6119C65.6979 64.6913 65.6793 64.7975 65.7773 64.8336C65.8216 64.8512 65.8742 64.8512 65.9279 64.8512C65.9804 64.8512 66.0341 64.8512 66.0867 64.8512C66.1929 64.8512 66.2991 64.8512 66.4146 64.8512C66.5126 64.8512 66.6188 64.8604 66.725 64.8336C66.8219 64.8161 66.8044 64.7006 66.8127 64.6212C66.8127 64.3995 66.8127 64.1778 66.8127 63.9571ZM66.2991 63.8766C66.3434 63.9127 66.2991 63.9478 66.2733 63.9746C66.2465 63.9478 66.1929 63.9395 66.1754 63.8859C66.2114 63.8684 66.2733 63.8416 66.2991 63.8766ZM66.1929 61.6017C66.2022 61.6192 66.229 61.6543 66.2197 61.6811C66.2022 61.6986 66.1754 61.6904 66.1578 61.6811C66.0867 61.646 66.1578 61.6192 66.1929 61.6017ZM66.1485 61.9998C66.1228 61.9915 66.131 61.9729 66.1403 61.9647C66.1403 61.9729 66.1485 61.9822 66.1485 61.9998ZM66.1403 63.0362C66.1671 63.0186 66.1929 63.0186 66.2197 63.0362C66.2372 63.0537 66.2558 63.0888 66.2372 63.1156C66.2114 63.1506 66.1671 63.1424 66.131 63.1424C66.131 63.1063 66.1135 63.063 66.1403 63.0362ZM66.131 63.1506C66.1403 63.2043 66.1754 63.3105 66.0959 63.3105C66.0784 63.2754 66.0609 63.2393 66.0423 63.195C66.0691 63.1774 66.1052 63.1692 66.131 63.1506ZM65.901 62.7175C65.9547 62.6989 65.9454 62.8681 65.9454 62.9124C65.9279 62.8763 65.8484 62.7258 65.901 62.7175ZM65.999 64.2139L65.9897 64.1963H66.0073L65.999 64.2139ZM66.0784 63.8148C66.0516 63.8333 66.0248 63.8684 65.999 63.8591C65.9722 63.8591 65.9629 63.8148 65.9722 63.7972C65.9804 63.7622 66.0165 63.7261 66.0423 63.7003C66.0423 63.6828 66.0423 63.6642 66.0423 63.6467C66.0423 63.5941 66.0165 63.5404 66.0423 63.4786C66.131 63.5229 66.2022 63.6467 66.1403 63.7446C66.1228 63.7704 66.0959 63.789 66.0784 63.8148ZM66.1052 64.0808C66.0691 63.9746 66.2022 63.9746 66.2733 63.9746C66.2991 64.0272 66.3259 64.0715 66.3259 64.1334C66.2558 64.1778 66.131 64.1778 66.1052 64.0808ZM66.3177 63.6559L66.3259 63.6467V63.6642L66.3177 63.6559Z" fill="#E5EFF2"/>
<path d="M73.5158 64.284C73.5158 64.0808 73.5158 63.8684 73.5158 63.6559C73.5158 62.8144 73.5158 61.9729 73.5158 61.1325C73.5158 60.3003 73.4982 59.4495 73.5343 58.609C73.1528 58.609 72.764 58.609 72.3824 58.609C72.3999 58.9627 72.3999 59.3175 72.3999 59.6712C72.3999 60.0249 72.3999 60.3797 72.3999 60.7427C72.3999 61.3717 72.3999 62.009 72.3999 62.6464C72.3999 62.7258 72.4092 62.8062 72.3999 62.8939C72.3999 62.9382 72.3917 63.0269 72.3298 62.9825C72.2679 62.9475 72.2318 62.8588 72.1968 62.8062C72.1524 62.7433 72.1081 62.6732 72.073 62.6113C71.9049 62.3452 71.7368 62.0792 71.5677 61.8049C71.2315 61.2738 70.8861 60.7334 70.5499 60.2023C70.3818 59.9373 70.2137 59.6619 70.0456 59.3969C69.9569 59.2639 69.8682 59.1308 69.7888 58.9978C69.7445 58.9277 69.7001 58.8658 69.6558 58.7946C69.6383 58.7678 69.6197 58.7328 69.6022 58.6977C69.5939 58.6709 69.5939 58.6441 69.5939 58.609C69.1329 58.609 68.673 58.609 68.2213 58.609C68.2213 58.7059 68.2296 58.8039 68.2296 58.8916C68.2388 59.6619 68.2296 60.4323 68.2296 61.2026C68.2296 61.9647 68.2296 62.735 68.2296 63.5054C68.2296 63.8859 68.2213 64.2664 68.2296 64.647C68.2296 64.7181 68.2213 64.8068 68.3007 64.8336C68.3894 64.8604 68.4956 64.8512 68.5843 64.8512C68.7699 64.8512 68.9648 64.8512 69.1505 64.8419C69.2309 64.8419 69.3196 64.8419 69.3371 64.7532C69.3547 64.6655 69.3454 64.5676 69.3454 64.4789C69.3454 64.2933 69.3454 64.0984 69.3454 63.9127C69.3454 63.5229 69.3454 63.1424 69.3454 62.7619C69.3454 62.372 69.3454 61.9915 69.3454 61.6099C69.3454 61.4161 69.3454 61.2294 69.3454 61.0345C69.3454 60.9376 69.3454 60.8396 69.3454 60.7427C69.3454 60.6983 69.3454 60.654 69.3371 60.6096C69.3278 60.5746 69.3103 60.5385 69.301 60.5034C69.3278 60.4952 69.3547 60.4859 69.3897 60.4766C69.4516 60.557 69.5052 60.6272 69.5578 60.7159C70.0013 61.4161 70.4437 62.1235 70.8953 62.8237C71.116 63.1774 71.347 63.5322 71.5677 63.8952C71.6832 64.0715 71.7987 64.2489 71.9049 64.417C71.9668 64.5057 72.0194 64.5944 72.073 64.6831C72.1256 64.7532 72.1617 64.8336 72.2587 64.8419C72.3566 64.8512 72.4628 64.8512 72.5598 64.8512C72.666 64.8512 72.7722 64.8512 72.8702 64.8512C72.9764 64.8512 73.0826 64.8512 73.1796 64.8512C73.2332 64.8512 73.2858 64.8512 73.3394 64.8512C73.3745 64.8419 73.4271 64.8419 73.4632 64.8244C73.5343 64.7893 73.5158 64.6655 73.5158 64.5944C73.5158 64.4964 73.5158 64.3902 73.5158 64.284ZM68.8493 60.0167C68.8586 60.0167 68.8679 60.0249 68.8679 60.0249C68.8679 60.0342 68.8679 60.0342 68.8586 60.0435C68.8411 60.0342 68.8411 60.0342 68.8493 60.0167ZM68.8854 60.6096C68.8854 60.6189 68.8854 60.6272 68.8762 60.6272C68.8586 60.6189 68.8586 60.6189 68.8679 60.6014C68.8762 60.6096 68.8762 60.6096 68.8854 60.6096ZM68.8493 59.8486C68.8411 59.8486 68.8318 59.8486 68.8318 59.8486C68.8318 59.8486 68.8318 59.8393 68.8236 59.8393C68.8411 59.831 68.8411 59.831 68.8493 59.8486ZM68.7968 60.1579C68.8236 60.1848 68.8411 60.1848 68.8411 60.2291C68.8318 60.2466 68.8318 60.2817 68.8143 60.291C68.7792 60.3003 68.7792 60.2559 68.7699 60.2384C68.7617 60.194 68.7699 60.194 68.7968 60.1579ZM68.7081 59.928C68.6988 59.9548 68.6813 59.9104 68.6813 59.9012C68.6905 59.9012 68.7173 59.9012 68.7081 59.928ZM68.8236 62.2215C68.7968 62.1947 68.8318 62.1771 68.8493 62.1679C68.8586 62.1854 68.8586 62.1947 68.8679 62.2039C68.8493 62.2215 68.8411 62.2483 68.8236 62.2215ZM68.8143 61.2294C68.7875 61.2387 68.7349 61.2294 68.7256 61.1944C68.7081 61.1593 68.7699 61.1407 68.7875 61.1325C68.8143 61.1407 68.8854 61.15 68.8854 61.1851C68.8854 61.2212 68.8411 61.2294 68.8143 61.2294ZM69.9301 60.6364C69.9126 60.6189 69.9033 60.6096 69.9033 60.5828C69.9126 60.5653 69.9208 60.5478 69.9394 60.5385C69.9569 60.5478 69.9569 60.5653 69.9569 60.5921C69.9569 60.6189 69.9476 60.6189 69.9301 60.6364ZM70.1869 60.6808C70.1693 60.6983 70.1333 60.6983 70.1157 60.6808C70.0982 60.6633 70.0899 60.6272 70.0982 60.6096C70.1157 60.5746 70.1518 60.5828 70.1869 60.5828C70.1869 60.6096 70.2044 60.654 70.1869 60.6808ZM70.1869 60.5828C70.1776 60.557 70.1601 60.5302 70.1693 60.5034C70.1869 60.4766 70.2488 60.4591 70.2756 60.4508C70.2838 60.5478 70.2756 60.5478 70.1869 60.5828ZM70.3993 60.9025L70.4086 60.8932L70.4168 60.9025H70.3993ZM71.116 62.4607C71.0985 62.4607 71.0903 62.4339 71.0903 62.4164C71.0903 62.4071 71.0985 62.3803 71.116 62.3803C71.1346 62.3803 71.1521 62.4164 71.1604 62.4246C71.1521 62.4422 71.1428 62.469 71.116 62.4607ZM72.436 64.5944C72.3999 64.6037 72.3649 64.5944 72.3298 64.5851C72.3566 64.5676 72.4886 64.4882 72.4886 64.55C72.4979 64.5769 72.4536 64.5944 72.436 64.5944ZM72.6485 64.6294C72.6309 64.6387 72.6217 64.6119 72.6217 64.5851C72.6134 64.5676 72.6134 64.5325 72.6392 64.5232C72.6567 64.515 72.6753 64.55 72.6928 64.5676C72.6835 64.5851 72.6835 64.6294 72.6485 64.6294ZM72.9764 64.6655V64.6563L72.9847 64.6655H72.9764ZM73.2414 64.5769C73.1796 64.6212 73.127 64.5944 73.0733 64.55C73.0208 64.5057 72.9578 64.5232 72.9053 64.4964C72.8516 64.4614 72.8258 64.3995 72.799 64.3469C72.764 64.3376 72.7279 64.3469 72.7103 64.3819C72.5691 64.3551 72.436 64.3283 72.2937 64.3108C72.2318 64.3108 72.1617 64.3108 72.0998 64.3108C72.0638 64.3108 72.0287 64.3025 71.9936 64.2933C71.9225 64.2582 71.8957 64.1602 71.8864 64.0901C71.8781 64.054 71.8781 64.0189 71.8781 63.9921C71.8864 63.9571 71.8957 63.9303 71.8957 63.8952C71.9049 63.8416 71.8781 63.7797 71.8513 63.7261C71.9225 63.6116 71.9225 63.6116 71.9225 63.5229C71.8513 63.4786 71.7719 63.4342 71.7008 63.3899C71.6739 63.3724 71.6389 63.3548 71.6038 63.3548C71.577 63.3455 71.5327 63.3548 71.5058 63.3373C71.4615 63.3012 71.4883 63.2311 71.5234 63.195C71.5595 63.1599 71.6213 63.1692 71.6121 63.1063C71.6482 63.1249 71.6739 63.1599 71.6925 63.195C71.71 63.2218 71.7276 63.2661 71.7719 63.2754C71.8163 63.2837 71.8338 63.2311 71.8688 63.2043C71.8957 63.1774 71.9307 63.1867 71.9751 63.195C71.9668 63.2311 71.9575 63.2661 71.9751 63.3012C71.9936 63.3373 72.0112 63.3724 72.0287 63.4074C72.0462 63.4693 72.0194 63.5848 72.1174 63.558C72.1174 63.5497 72.1174 63.5322 72.1174 63.5136C72.1349 63.4342 72.1617 63.3816 72.2318 63.3373C72.2587 63.3198 72.2855 63.2929 72.3123 63.2661C72.3298 63.2311 72.3381 63.195 72.3566 63.1692C72.4092 63.1063 72.5154 63.1249 72.5773 63.1424C72.666 63.1692 72.7279 63.2311 72.799 63.2837C72.8516 63.2661 72.8877 63.2486 72.9228 63.2125C72.9578 63.1867 72.9847 63.1506 73.029 63.1331C73.1084 63.1063 73.127 63.1506 73.162 63.2125C73.2146 63.2486 73.2775 63.1599 73.3301 63.2218C73.3652 63.2754 73.2951 63.3012 73.259 63.328C73.2064 63.3631 73.1796 63.3992 73.1528 63.4518C73.1177 63.5136 73.0641 63.558 73.029 63.6023C72.9847 63.6467 72.9578 63.691 72.9321 63.7446C72.9053 63.789 72.8702 63.824 72.8341 63.8684C72.7279 63.9034 72.6134 63.8684 72.5072 63.8859C72.4711 63.9127 72.4804 63.9478 72.4886 63.9829C72.5072 64.0189 72.533 64.0365 72.5773 64.0458C72.666 64.0633 72.7547 64.0901 72.8341 64.1334C72.9403 64.1334 72.9671 64.0272 73.0558 64.0014C73.0733 64.0189 73.1002 64.0365 73.127 64.054C73.1528 64.0365 73.2146 63.9829 73.2507 64.0272C73.2775 64.0633 73.2332 64.1159 73.2239 64.1427C73.1888 64.2221 73.2414 64.2489 73.3033 64.2933C73.2775 64.3108 73.2239 64.3283 73.2239 64.3644C73.2239 64.4088 73.2775 64.3902 73.3033 64.3902C73.3208 64.4614 73.2951 64.5325 73.2414 64.5769ZM73.2332 62.9031C73.2507 62.9124 73.2858 62.9299 73.2858 62.9557C73.2858 62.9743 73.2775 62.9825 73.259 62.9825C73.2332 62.9825 73.2146 62.965 73.2064 62.9475C73.2064 62.9207 73.2146 62.9207 73.2332 62.9031ZM73.127 63.6023C73.1445 63.5941 73.1528 63.5848 73.162 63.5765C73.1528 63.5941 73.1445 63.5941 73.127 63.6023ZM73.0909 63.7972C73.029 63.8509 72.9764 63.7972 72.9403 63.7446C72.9764 63.7085 73.0115 63.6642 73.029 63.6116C73.0558 63.6116 73.0909 63.6116 73.1177 63.6116C73.1445 63.6735 73.162 63.7529 73.0909 63.7972ZM73.3033 64.3819C73.3033 64.3551 73.3033 64.3283 73.3033 64.3025C73.3126 64.3283 73.3126 64.3551 73.3033 64.3819ZM73.259 63.8333C73.2775 63.7972 73.3033 63.7178 73.3394 63.7446C73.3569 63.7704 73.2858 63.8148 73.259 63.8333ZM73.3394 62.7876C73.2775 62.7175 73.2414 62.6639 73.1971 62.6113C73.2414 62.5494 73.3208 62.5752 73.3477 62.6371C73.3652 62.6907 73.3477 62.735 73.3394 62.7876ZM73.0022 64.2489C72.9228 64.2489 72.8784 64.3819 72.9764 64.3819C73.0383 64.3819 73.0558 64.2664 73.0022 64.2489Z" fill="#E5EFF2"/>
<path d="M80.9896 60.8664C80.8122 60.2466 80.4409 59.7063 79.9356 59.3082C79.7149 59.1308 79.4664 58.9895 79.2014 58.8833C79.0683 58.8297 78.9446 58.7854 78.8116 58.7596C78.7136 58.7328 78.6167 58.7152 78.5104 58.6977C78.431 58.6791 78.3063 58.6791 78.2361 58.609C78.1031 58.609 77.9608 58.609 77.8288 58.609C77.7483 58.6709 77.6421 58.6709 77.5534 58.6884C77.4565 58.7059 77.3678 58.7235 77.2709 58.741C76.6862 58.8916 76.1375 59.2113 75.7302 59.6619C75.3228 60.0961 75.0568 60.654 74.9598 61.2469C74.8536 61.876 74.9506 62.5309 75.2249 63.1063C75.4909 63.6559 75.9158 64.1076 76.4294 64.417C76.6769 64.5676 76.9429 64.6738 77.2173 64.7532C77.5184 64.8244 77.8195 64.8512 78.1206 64.8419C78.4929 64.8336 78.8466 64.7625 79.1921 64.6212C79.4757 64.5057 79.7325 64.3551 79.9717 64.1695C80.4317 63.7972 80.7854 63.2929 80.9628 62.7258C81.1669 62.1235 81.1669 61.4687 80.9896 60.8664ZM79.8469 60.1136C79.8738 60.1136 79.8738 60.1579 79.8738 60.1755C79.8738 60.194 79.8738 60.2291 79.8469 60.2198C79.8212 60.2116 79.8119 60.1755 79.8119 60.1579C79.8119 60.1322 79.8212 60.1054 79.8469 60.1136ZM78.2444 59.1226C78.2619 59.1226 78.2537 59.1401 78.2444 59.1226ZM76.4562 63.7446L76.4644 63.7354V63.7446H76.4562ZM78.1299 64.3902C78.0938 64.3644 78.0763 64.3469 78.067 64.3025C78.067 64.2757 78.0588 64.2396 78.067 64.2046C78.067 64.152 78.0938 64.0984 78.1382 64.0633C78.1474 64.1252 78.1557 64.187 78.1557 64.2489C78.1557 64.3025 78.165 64.3551 78.1299 64.3902ZM78.2 64.0715C78.2093 64.0808 78.2176 64.0984 78.2268 64.1076C78.2093 64.0984 78.2093 64.0901 78.2 64.0715ZM78.2887 64.4789L78.2805 64.4614H78.2887V64.4789ZM78.431 64.2933C78.4218 64.284 78.4125 64.2757 78.3949 64.2664C78.4042 64.2582 78.4125 64.2489 78.4125 64.2314C78.4486 64.2489 78.4486 64.2489 78.431 64.2933ZM79.0591 64.2314C79.0415 64.2221 79.0323 64.2046 79.0323 64.1963C79.0323 64.1778 79.0415 64.152 79.0591 64.152C79.0859 64.152 79.0941 64.187 79.1034 64.2046C79.0941 64.2139 79.0766 64.2396 79.0591 64.2314ZM79.2633 63.9921C79.2633 64.0189 79.2447 64.1252 79.2189 64.1334C79.1746 64.1427 79.1478 64.0458 79.1478 64.0097C79.1385 63.9921 79.1385 63.9571 79.1478 63.9395C79.157 63.921 79.1828 63.9127 79.1921 63.9034C79.2364 63.9127 79.2715 63.9478 79.2633 63.9921ZM78.3774 63.7085C77.5452 63.8591 76.6954 63.461 76.2881 62.7258C75.889 62.009 75.9694 61.0964 76.5005 60.4684C77.0492 59.8125 77.9969 59.5918 78.794 59.9187C79.52 60.2198 80.015 60.9726 80.0068 61.7605C80.0068 61.8667 79.9975 61.9729 79.98 62.0792C79.8469 62.8939 79.1921 63.5673 78.3774 63.7085ZM79.5108 63.558L79.5015 63.5497L79.52 63.5404L79.5108 63.558ZM79.6706 63.8065C79.652 63.7972 79.6438 63.7704 79.652 63.7529C79.6613 63.7261 79.6881 63.7261 79.7057 63.7354C79.7325 63.7529 79.7232 63.7797 79.7325 63.8065C79.7057 63.8148 79.6881 63.824 79.6706 63.8065ZM79.8119 63.4518C79.8026 63.4786 79.7851 63.4961 79.7768 63.5229C79.7675 63.5404 79.75 63.5765 79.7325 63.5848C79.6964 63.6199 79.652 63.5848 79.6438 63.5404C79.6263 63.4961 79.6345 63.461 79.6613 63.426C79.6964 63.3816 79.7149 63.3373 79.7232 63.2837C79.7325 63.2393 79.7149 63.1867 79.7325 63.1424C79.7407 63.1063 79.8026 63.0712 79.8212 63.1249C79.8294 63.1774 79.8212 63.2393 79.8212 63.2929C79.8387 63.3455 79.8294 63.3992 79.8119 63.4518ZM80.0336 63.558C80.0418 63.5497 80.0418 63.5322 80.0594 63.5322C80.0687 63.5322 80.0862 63.5322 80.0862 63.5404C80.0955 63.5673 80.0511 63.5673 80.0336 63.558ZM80.0779 63.3373C80.0594 63.3105 80.0511 63.2569 80.0594 63.2218C80.0687 63.1867 80.1037 63.1774 80.1305 63.2043C80.1481 63.2393 80.1573 63.3012 80.1656 63.3373C80.1398 63.3724 80.113 63.3899 80.0779 63.3373ZM80.0068 63.0805C79.9624 63.0362 79.9893 62.9825 79.9532 62.9124C80.0243 62.8939 80.1656 62.8144 80.2017 62.9124C80.246 63.0186 80.0862 63.1063 80.0068 63.0805ZM80.3873 62.106C80.3873 62.0977 80.4141 62.0792 80.4224 62.0884C80.4409 62.0977 80.4409 62.1235 80.4492 62.1328C80.4317 62.1421 80.4048 62.1596 80.3966 62.1503C80.3873 62.1421 80.378 62.1153 80.3873 62.106ZM80.4224 62.3803C80.3966 62.4071 80.3698 62.3452 80.3523 62.3277C80.378 62.3359 80.4492 62.3545 80.4224 62.3803ZM80.3605 63.2311C80.2986 63.2569 80.343 63.1599 80.3523 63.1331C80.3605 63.1506 80.3966 63.1599 80.3966 63.1774C80.4048 63.195 80.378 63.2311 80.3605 63.2311ZM80.4048 62.9299C80.378 62.9382 80.343 62.9299 80.3523 62.8856C80.3523 62.8588 80.3966 62.8413 80.4224 62.832C80.4585 62.8237 80.476 62.8413 80.4935 62.8763C80.476 62.9124 80.4492 62.9299 80.4048 62.9299ZM80.6792 62.3989C80.6616 62.4339 80.6266 62.4514 80.5822 62.4514C80.5286 62.4246 80.6173 62.2834 80.6709 62.3102C80.706 62.3184 80.6977 62.372 80.6792 62.3989ZM80.7947 62.5133L80.8039 62.5051V62.5133H80.7947ZM80.7947 62.0359C80.7503 62.0359 80.6884 61.9998 80.6792 61.9472C80.6709 61.8853 80.7421 61.8853 80.7854 61.876C80.8297 61.8935 80.8916 61.9111 80.8916 61.9647C80.8916 62.0173 80.8483 62.0441 80.7947 62.0359Z" fill="#E5EFF2"/>
<mask id="mask5_123_375" style="mask-type:luminance" maskUnits="userSpaceOnUse" x="46" y="30" width="3" height="5">
<path d="M46.5043 30.624H48.5761V34.32H46.5043V30.624Z" fill="white"/>
</mask>
<g mask="url(#mask5_123_375)">
<path d="M48.2099 34.1633C48.1109 34.1633 48.0439 34.1293 47.9779 34.0623L46.6507 32.7237C46.5176 32.5907 46.5176 32.3896 46.6507 32.2555L47.9779 30.917C48.1109 30.7829 48.31 30.7829 48.443 30.917C48.575 31.051 48.575 31.2521 48.443 31.3851L47.3478 32.4896L48.443 33.5941C48.575 33.7281 48.575 33.9292 48.443 34.0623C48.376 34.1293 48.31 34.1633 48.2099 34.1633Z" fill="#252525"/>
</g>
<mask id="mask6_123_375" style="mask-type:luminance" maskUnits="userSpaceOnUse" x="50" y="30" width="4" height="5">
<path d="M50.952 30.624H53.2362V34.32H50.952V30.624Z" fill="white"/>
</mask>
<g mask="url(#mask6_123_375)">
<path d="M51.5296 34.1633C51.4295 34.1633 51.3635 34.1293 51.2965 34.0623C51.1645 33.9292 51.1645 33.7281 51.2965 33.5941L52.3927 32.4896L51.2965 31.3851C51.1645 31.2521 51.1645 31.051 51.2965 30.917C51.4295 30.7829 51.6286 30.7829 51.7616 30.917L53.0888 32.2555C53.2219 32.3896 53.2219 32.5907 53.0888 32.7237L51.7616 34.0623C51.6956 34.1293 51.6286 34.1633 51.5296 34.1633Z" fill="#252525"/>
</g>
<mask id="mask7_123_375" style="mask-type:luminance" maskUnits="userSpaceOnUse" x="48" y="30" width="3" height="5">
<path d="M48.84 30.0959H50.952V34.8325H48.84V30.0959Z" fill="white"/>
</mask>
<g mask="url(#mask7_123_375)">
<path d="M49.2061 34.8325C49.1731 34.8325 49.139 34.8325 49.106 34.7985C48.94 34.7314 48.841 34.5644 48.907 34.3643L50.2353 30.3476C50.3013 30.1805 50.4673 30.0805 50.6663 30.1475C50.8324 30.2146 50.9314 30.3816 50.8654 30.5827L49.5381 34.5984C49.4711 34.7314 49.3391 34.8325 49.2061 34.8325Z" fill="#252525"/>
</g>
</svg>
