<svg width="55" height="55" viewBox="0 0 55 55" fill="none" xmlns="http://www.w3.org/2000/svg">
<g clip-path="url(#clip0_184_74)">
<path d="M32.3125 27.5C32.3125 30.1606 30.1606 32.3125 27.5 32.3125C24.8394 32.3125 22.6875 30.1606 22.6875 27.5C22.6875 24.8394 24.8394 22.6875 27.5 22.6875C30.1606 22.6875 32.3125 24.8394 32.3125 27.5Z" fill="#61DBFB"/>
<path d="M27.5 33C24.4667 33 22 30.5332 22 27.5C22 24.4667 24.4667 22 27.5 22C30.5332 22 33 24.4667 33 27.5C33 30.5332 30.5332 33 27.5 33ZM27.5 23.375C25.2257 23.375 23.375 25.2257 23.375 27.5C23.375 29.7742 25.2257 31.625 27.5 31.625C29.7742 31.625 31.625 29.7742 31.625 27.5C31.625 25.2257 29.7742 23.375 27.5 23.375Z" fill="#61DBFB"/>
<path d="M54.3125 27.5C54.3125 23.6555 50.3085 20.306 44.011 18.1679C44.803 14.4953 44.9116 11.2172 44.2393 8.7065C43.6782 6.61375 42.6154 5.10812 41.0822 4.23362C40.1596 3.70838 39.105 3.44025 37.9486 3.44025C34.914 3.44025 31.2208 5.36663 27.5028 8.65288C23.782 5.36525 20.0874 3.4375 17.05 3.4375C15.8922 3.4375 14.839 3.70425 13.9164 4.23087C12.3833 5.10675 11.319 6.61375 10.7594 8.70788C10.087 11.2186 10.1956 14.4966 10.9862 18.1679C4.6915 20.306 0.6875 23.6569 0.6875 27.5C0.6875 31.3431 4.6915 34.694 10.9876 36.8307C10.1956 40.502 10.087 43.78 10.7607 46.2907C11.3204 48.3862 12.3846 49.8919 13.9191 50.7691C14.8418 51.2944 15.8964 51.5625 17.0527 51.5625C17.0514 51.5625 17.0541 51.5625 17.0527 51.5625C20.0888 51.5625 23.7834 49.6361 27.5014 46.3471C31.2194 49.632 34.9126 51.557 37.9473 51.5584C37.9486 51.5584 37.9486 51.5584 37.9486 51.5584C39.1064 51.5584 40.1596 51.2916 41.0836 50.765C42.6154 49.8905 43.6782 48.3849 44.2379 46.2921C44.9103 43.7814 44.8016 40.5034 44.011 36.8321C50.3071 34.6954 54.3125 31.3445 54.3125 27.5ZM39.721 6.62337C40.5928 7.12112 41.2197 8.06163 41.5828 9.41875C42.1341 11.4757 42.0255 14.2436 41.3655 17.38C39.171 16.8066 36.7689 16.3707 34.2045 16.0903C32.6782 14.025 31.0846 12.1646 29.4745 10.5339C32.7704 7.66425 35.7968 6.19162 37.9486 6.19162C38.6224 6.19162 39.2178 6.33737 39.721 6.62337ZM35.453 32.0196C34.5551 33.5555 33.6325 34.9786 32.6989 36.3083C31.042 36.4526 29.3068 36.531 27.4986 36.531C25.6891 36.531 23.9539 36.4513 22.2956 36.3083C21.362 34.9786 20.4394 33.5555 19.5415 32.0196C18.667 30.5209 17.875 29.007 17.1614 27.5C17.875 25.9944 18.667 24.4791 19.5429 22.9804C20.4408 21.4445 21.3647 20.0214 22.2984 18.6904C23.9552 18.546 25.6919 18.4676 27.5 18.4676C29.3081 18.4676 31.0434 18.546 32.6989 18.6904C33.6325 20.0214 34.5551 21.4431 35.453 22.979C36.3289 24.4778 37.1222 25.993 37.8359 27.4986C37.1222 29.007 36.3289 30.5209 35.453 32.0196ZM39.2673 30.789C39.831 32.2135 40.3068 33.6105 40.6986 34.9621C39.3374 35.3169 37.8703 35.6194 36.3069 35.8628C36.8253 35.0625 37.3354 34.2485 37.8276 33.4056C38.3364 32.5366 38.8107 31.6635 39.2673 30.789ZM27.5 42.6016C26.4976 41.5869 25.4829 40.4621 24.4681 39.2054C25.4636 39.2521 26.4715 39.281 27.5 39.281C28.5271 39.281 29.535 39.2521 30.5291 39.2054C29.5157 40.4621 28.5024 41.5882 27.5 42.6016ZM18.6904 35.8628C17.1284 35.6194 15.6612 35.3169 14.3 34.9621C14.6919 33.6105 15.1662 32.2149 15.73 30.7904C16.1865 31.6635 16.6609 32.538 17.1683 33.407C17.6605 34.2485 18.172 35.0625 18.6904 35.8628ZM15.73 24.2096C15.1662 22.7851 14.6919 21.3895 14.3 20.0379C15.6612 19.6831 17.1284 19.3806 18.6917 19.1372C18.1734 19.9375 17.6619 20.7515 17.1696 21.593C16.6609 22.4634 16.1865 23.3365 15.73 24.2096ZM27.5014 12.3997C28.5037 13.4131 29.5171 14.5379 30.5291 15.7946C29.535 15.7479 28.5271 15.719 27.5 15.719C26.4729 15.719 25.465 15.7479 24.4709 15.7946C25.4843 14.5379 26.499 13.4131 27.5014 12.3997ZM37.8276 21.593C37.3354 20.7501 36.8253 19.9361 36.3069 19.1359C37.8703 19.3792 39.3374 19.6817 40.6986 20.0365C40.3068 21.3895 39.831 22.7851 39.2673 24.211C38.8107 23.3379 38.3364 22.4634 37.8276 21.593ZM13.4159 9.42013C13.7802 8.06025 14.4073 7.11838 15.279 6.61925C15.7823 6.33325 16.3776 6.1875 17.05 6.1875C19.2046 6.1875 22.231 7.6615 25.5282 10.5339C23.9167 12.166 22.3218 14.025 20.7941 16.0916C18.2297 16.3721 15.8276 16.8094 13.6331 17.3828C12.9731 14.2436 12.8645 11.4757 13.4159 9.42013ZM3.4375 27.5C3.4375 25.1226 6.50512 22.5968 11.6641 20.8216C12.2856 22.9735 13.1147 25.2202 14.135 27.5C13.1147 29.7798 12.2856 32.0265 11.6641 34.1784C6.50512 32.4032 3.4375 29.8774 3.4375 27.5ZM17.0514 48.8125C16.3776 48.8125 15.7809 48.6668 15.2804 48.3821C14.4059 47.883 13.7789 46.9411 13.4159 45.5813C12.8645 43.5243 12.9731 40.7564 13.6331 37.62C15.8276 38.1934 18.2284 38.6292 20.7927 38.9098C22.3204 40.9764 23.9154 42.8368 25.5282 44.4689C22.231 47.3399 19.2046 48.8125 17.0514 48.8125ZM41.5814 45.5813C41.217 46.9384 40.5914 47.8789 39.7196 48.3766C39.2178 48.6626 38.621 48.8084 37.9473 48.8084C35.794 48.8084 32.7676 47.3358 29.4718 44.4675C31.0833 42.8354 32.6769 40.975 34.2031 38.9098C36.7675 38.6292 39.1683 38.192 41.3628 37.62C42.0241 40.7564 42.1327 43.5243 41.5814 45.5813ZM43.3331 34.1798C42.7116 32.0279 41.8825 29.7811 40.8623 27.5C41.8825 25.2189 42.7116 22.9721 43.3331 20.8202C48.4935 22.5954 51.5625 25.1226 51.5625 27.5C51.5625 29.8774 48.4935 32.4046 43.3331 34.1798Z" fill="#61DBFB"/>
<path d="M17.0527 52.2501C15.774 52.2501 14.6052 51.9531 13.5767 51.3673C11.8759 50.3938 10.7044 48.7466 10.0953 46.4682C9.44625 44.0454 9.482 40.8802 10.1915 37.2804C3.70425 34.9526 0 31.4078 0 27.5001C0 23.5923 3.70425 20.0476 10.1915 17.7183C9.48063 14.1199 9.44625 10.9533 10.0953 8.53056C10.7044 6.25356 11.8759 4.60631 13.5754 3.63418C17.0404 1.65693 22.0701 3.09381 27.5014 7.74268C32.9312 3.09793 37.9569 1.66243 41.4232 3.63693C43.1214 4.60631 44.2929 6.25218 44.9034 8.52918C45.5524 10.9533 45.5166 14.1199 44.8057 17.7183C51.2944 20.0462 55 23.5923 55 27.5001C55 31.4078 51.2944 34.9539 44.8057 37.2832C45.518 40.8816 45.551 44.0468 44.902 46.4709C44.2929 48.7479 43.1227 50.3938 41.4246 51.3632C37.9555 53.3404 32.9258 51.9008 27.5 47.2588C23.683 50.5272 20.0805 52.2501 17.0527 52.2501ZM17.05 4.12506C16.0146 4.12506 15.0741 4.36156 14.2574 4.82768C12.8879 5.61143 11.935 6.97681 11.4249 8.88531C10.7951 11.2324 10.8776 14.3922 11.66 18.0236L11.7893 18.6231L11.209 18.8211C4.95825 20.9413 1.375 24.1052 1.375 27.5001C1.375 30.8949 4.95825 34.0588 11.2076 36.1804L11.7879 36.3784L11.6586 36.9779C10.8763 40.6093 10.7937 43.7691 11.4235 46.1162C11.9336 48.0261 12.8865 49.3914 14.2587 50.1752C15.0769 50.6386 16.016 50.8751 17.0514 50.8751H17.0527C19.8193 50.8751 23.3668 49.0848 27.0449 45.8329L27.5 45.4301L27.9551 45.8329C31.6319 49.0807 35.1807 50.8709 37.9473 50.8709C38.984 50.8709 39.9245 50.6344 40.744 50.1683C42.1107 49.3873 43.0636 48.0233 43.5737 46.1148C44.2035 43.7677 44.121 40.6093 43.3386 36.9779L43.2094 36.3784L43.7896 36.1804C50.0404 34.0602 53.625 30.8949 53.625 27.5001C53.625 24.1038 50.0404 20.9399 43.7896 18.8197L43.2094 18.6217L43.34 18.0222C44.1224 14.3908 44.2049 11.2311 43.5751 8.88393C43.0636 6.97406 42.1107 5.61143 40.7412 4.83043C39.9231 4.36431 38.984 4.12781 37.9486 4.12781C35.1835 4.12781 31.636 5.91806 27.9565 9.16856L27.5014 9.57143L27.0462 9.16856C23.3668 5.91668 19.8179 4.12506 17.05 4.12506ZM17.0514 49.5001C16.258 49.5001 15.5471 49.3254 14.9408 48.9789C13.9012 48.3849 13.1642 47.3014 12.7504 45.7587C12.1894 43.6591 12.2622 40.7949 12.9594 37.4784L13.1079 36.7731L13.805 36.9546C15.9926 37.5252 18.3659 37.9542 20.8656 38.2264L21.164 38.2594L21.3441 38.5001C22.8195 40.4952 24.3925 42.3404 26.015 43.9849L26.5293 44.5061L25.9779 44.9873C22.638 47.8968 19.4673 49.5001 17.0514 49.5001ZM14.1666 38.4629C13.5231 41.2679 13.5039 43.6563 14.08 45.4026C14.4622 46.5589 14.9119 47.3798 15.6214 47.7841C17.4006 48.8002 20.8643 47.4582 24.5217 44.4208C23.1014 42.9358 21.7236 41.3037 20.4188 39.5588C18.2284 39.3086 16.1287 38.9401 14.1666 38.4629ZM37.9486 49.4959C35.5328 49.4959 32.362 47.8941 29.0235 44.9859L28.4721 44.5061L28.9864 43.9849C30.6157 42.3322 32.186 40.4883 33.6531 38.5014L33.8319 38.2594L34.1316 38.2264C36.6328 37.9528 39.0101 37.5252 41.195 36.9546L41.8935 36.7731L42.0406 37.4784C42.7378 40.7977 42.8106 43.6604 42.2482 45.7587C41.8344 47.3001 41.0987 48.3822 40.0634 48.9734C39.4529 49.3213 38.742 49.4959 37.9486 49.4959ZM30.4783 44.4208C34.1357 47.4554 37.5884 48.7988 39.3814 47.7799C40.0868 47.3784 40.535 46.5576 40.9172 45.4039C41.4975 43.6563 41.4741 41.2679 40.832 38.4643C38.8699 38.9414 36.7702 39.3086 34.5771 39.5602C33.2805 41.2982 31.9041 42.9289 30.4783 44.4208ZM27.5 43.5807L27.0119 43.0857C25.949 42.0104 24.9136 40.8513 23.9346 39.6372L22.9721 38.4451L24.5011 38.5179C26.4688 38.6114 28.5312 38.6114 30.4975 38.5179L32.0251 38.4451L31.0654 39.6358C30.0891 40.8444 29.0551 42.0049 27.9895 43.0829L27.5 43.5807ZM25.9848 39.9493C26.4784 40.5227 26.9858 41.0796 27.5 41.6158C28.0142 41.0768 28.5189 40.5213 29.0139 39.9493C28.0115 39.9754 26.9871 39.9754 25.9848 39.9493ZM27.5 37.2186C25.7345 37.2186 23.9649 37.1429 22.2379 36.9931L21.9189 36.9656L21.7346 36.7029C20.7432 35.2908 19.8069 33.8306 18.9502 32.3662C18.0991 30.9073 17.2879 29.3701 16.5399 27.7943L16.3996 27.5001L16.5399 27.2058C17.2879 25.6301 18.0991 24.0914 18.9502 22.6339C19.8165 21.1517 20.7281 19.7341 21.7374 18.2958L21.9216 18.0346L22.2406 18.0071C25.6891 17.7073 29.3109 17.7073 32.758 18.0071L33.077 18.0346L33.2612 18.2972C34.2733 19.7409 35.1849 21.1599 36.0456 22.6339C36.905 24.1052 37.7163 25.6424 38.456 27.2072L38.5949 27.5001L38.456 27.7943C37.7163 29.3577 36.905 30.8963 36.0456 32.3676C35.1849 33.8416 34.2733 35.2606 33.2612 36.7043L33.077 36.9669L32.758 36.9944C31.0337 37.1429 29.2655 37.2186 27.5 37.2186ZM22.6751 35.6511C25.85 35.9082 29.1514 35.9082 32.3208 35.6511C33.2379 34.3297 34.0698 33.0248 34.8604 31.6732C35.6455 30.3298 36.3894 28.9273 37.0741 27.5001C36.3894 26.0728 35.6455 24.6703 34.8604 23.3269C34.0711 21.9753 33.2379 20.6704 32.3208 19.3491C29.15 19.0919 25.8431 19.0919 22.6779 19.3491C21.7635 20.6663 20.9303 21.9698 20.1355 23.3283C19.3586 24.6593 18.6134 26.0618 17.9218 27.5001C18.6134 28.9369 19.3573 30.3394 20.1355 31.6732C20.9206 33.0138 21.7745 34.3503 22.6751 35.6511ZM34.8934 36.7799L35.728 35.4902C36.2409 34.6982 36.7455 33.8924 37.2336 33.0606C37.7369 32.1998 38.2057 31.3349 38.6567 30.4714L39.3525 29.1404L39.9053 30.5374C40.4621 31.9441 40.9516 33.3699 41.3586 34.7738L41.5553 35.4531L40.8719 35.6304C39.4735 35.9934 37.9748 36.3014 36.4128 36.5448L34.8934 36.7799ZM39.1586 32.4501C38.9194 32.8846 38.6732 33.3204 38.4202 33.7549C38.1893 34.1509 37.9528 34.5401 37.7149 34.9251C38.4409 34.7876 39.1476 34.6377 39.8324 34.4727C39.6261 33.7989 39.4006 33.1238 39.1586 32.4501ZM20.1039 36.7799L18.5845 36.5434C17.0225 36.3001 15.5224 35.9921 14.1281 35.6291L13.4447 35.4517L13.6414 34.7738C14.0456 33.3754 14.5338 31.9509 15.0934 30.5388L15.6461 29.1404L16.3419 30.4742C16.7915 31.3377 17.2604 32.2012 17.7636 33.0619C18.2504 33.8938 18.7564 34.6996 19.2692 35.4916L20.1039 36.7799ZM15.1649 34.4699C15.8469 34.6336 16.5536 34.7848 17.2782 34.9223C17.0404 34.5387 16.8053 34.1496 16.5742 33.7536C16.3199 33.3204 16.0765 32.8859 15.8372 32.4501C15.5952 33.1266 15.3711 33.8003 15.1649 34.4699ZM42.8725 35.0653L42.6717 34.3709C42.0585 32.2424 41.2376 30.0259 40.2352 27.7819L40.1087 27.5001L40.2352 27.2196C41.2376 24.9783 42.0585 22.7604 42.6731 20.6306L42.8739 19.9362L43.5586 20.1713C49.0009 22.0427 52.25 24.7831 52.25 27.5001C52.25 30.2184 49.0009 32.9574 43.5573 34.8302L42.8725 35.0653ZM41.6144 27.5001C42.4806 29.4622 43.208 31.4051 43.7855 33.2874C48.1154 31.6787 50.875 29.4416 50.875 27.5001C50.875 25.5586 48.1154 23.3214 43.7855 21.7127C43.208 23.5978 42.4792 25.5393 41.6144 27.5001ZM12.1234 35.0639L11.44 34.8288C5.99912 32.9561 2.75 30.2171 2.75 27.5001C2.75 24.7831 5.99912 22.0441 11.44 20.1713L12.1234 19.9362L12.3241 20.6306C12.9415 22.7673 13.761 24.9852 14.7606 27.2196L14.8885 27.5001L14.762 27.7806C13.761 30.0149 12.9429 32.2328 12.3255 34.3696L12.1234 35.0639ZM11.2131 21.7127C6.88325 23.3228 4.125 25.5599 4.125 27.5001C4.125 29.4402 6.88325 31.6773 11.2131 33.2874C11.792 31.3968 12.5194 29.4553 13.3829 27.5001C12.5194 25.5448 11.792 23.6033 11.2131 21.7127ZM15.6448 25.8624L15.092 24.4641C14.5337 23.0519 14.0443 21.6274 13.64 20.2291L13.4434 19.5512L14.1267 19.3738C15.5238 19.0108 17.0225 18.7028 18.5845 18.4594L20.1052 18.2229L19.2665 19.5141C18.7536 20.3047 18.249 21.1104 17.7609 21.9423C17.2576 22.8017 16.7887 23.6666 16.3391 24.5301L15.6448 25.8624ZM15.1649 20.5302C15.3698 21.1998 15.5952 21.8749 15.8372 22.5501C16.0765 22.1156 16.3212 21.6811 16.5742 21.2466C16.8053 20.8519 17.0404 20.4628 17.2782 20.0778C16.5536 20.2139 15.8469 20.3666 15.1649 20.5302ZM39.3525 25.8624L38.6567 24.5301C38.2057 23.6652 37.7369 22.8017 37.2336 21.9409C36.7469 21.1091 36.2409 20.3033 35.728 19.5113L34.8934 18.2216L36.4114 18.4581C37.9748 18.7014 39.4762 19.0094 40.8705 19.3738L41.5539 19.5512L41.3573 20.2304C40.9502 21.6329 40.4621 23.0588 39.9039 24.4668L39.3525 25.8624ZM37.7163 20.0764C37.9541 20.4614 38.1906 20.8506 38.4216 21.2466C38.676 21.6811 38.9207 22.1156 39.16 22.5514C39.402 21.8763 39.6275 21.2012 39.8337 20.5302C39.1504 20.3652 38.4422 20.2139 37.7163 20.0764ZM41.8894 18.2284L41.1922 18.0469C39.0101 17.4763 36.6341 17.0487 34.1289 16.7751L33.8291 16.7421L33.6504 16.5001C32.1791 14.5077 30.6089 12.6624 28.9836 11.0179L28.4694 10.4968L29.0208 10.0156C33.4606 6.15043 37.6049 4.62693 40.0579 6.02668C41.096 6.61931 41.8316 7.70143 42.2455 9.24143C42.8065 11.3411 42.7336 14.2052 42.0365 17.5231L41.8894 18.2284ZM34.5771 15.4399C36.773 15.6916 38.8713 16.0601 40.832 16.5372C41.5429 13.9151 41.6432 11.5941 40.9186 9.59618C40.5034 8.45493 40.0881 7.62306 39.38 7.21881C37.5952 6.20131 34.1385 7.54331 30.4796 10.5793C31.9 12.0657 33.2764 13.6978 34.5771 15.4399ZM13.1093 18.2284L12.9607 17.5231C12.2622 14.2052 12.1894 11.3424 12.7517 9.24281C13.1656 7.69868 13.9012 6.61518 14.9394 6.02393C17.3993 4.62143 21.5408 6.14906 25.9806 10.0169L26.5334 10.4982L26.0178 11.0193C24.3898 12.6652 22.8195 14.5104 21.3482 16.5014L21.1695 16.7434L20.8698 16.7764C18.37 17.0501 15.9926 17.4777 13.8064 18.0483L13.1093 18.2284ZM17.05 6.87506C16.4986 6.87506 16.0174 6.98918 15.6186 7.21743C14.9119 7.62031 14.5544 8.47693 14.08 9.59756C13.3375 11.3507 13.4626 13.7377 14.1666 16.5372C16.1301 16.0601 18.2284 15.6916 20.4215 15.4399C21.7222 13.6978 23.1 12.0671 24.5231 10.5807C21.6782 8.21843 18.9791 6.87506 17.05 6.87506ZM22.9749 16.5537L23.936 15.3629C24.9123 14.1529 25.9476 12.9938 27.0119 11.9158L27.5 11.4208L27.9881 11.9158C29.0565 12.9979 30.0905 14.1571 31.0626 15.3616L32.021 16.5523L30.4947 16.4808C28.5285 16.3887 26.466 16.3887 24.5011 16.4808L22.9749 16.5537ZM27.5 15.0316C28.0088 15.0316 28.5134 15.0384 29.0139 15.0508C28.523 14.4802 28.0156 13.9247 27.5014 13.3857C26.9871 13.9233 26.4811 14.4788 25.9875 15.0508C26.488 15.0384 26.9912 15.0316 27.5 15.0316Z" fill="#61DBFB"/>
</g>
<defs>
<clipPath id="clip0_184_74">
<rect width="55" height="55" fill="white"/>
</clipPath>
</defs>
</svg>
