<svg width="61" height="61" viewBox="0 0 61 61" fill="none" xmlns="http://www.w3.org/2000/svg">
<path d="M53.375 7.625H7.625V53.375H53.375V7.625Z" fill="#1976D2"/>
<path d="M34.9352 27.9584H18.0801V32.1064H24.1255V50.8334H28.9153V32.1064H34.9352V27.9584Z" fill="white"/>
<path d="M49.809 33.1484C49.809 33.1484 47.5381 31.6336 44.971 31.6336C42.4039 31.6336 41.48 32.8536 41.48 34.1575C41.48 37.5227 50.86 37.1859 50.86 43.9582C50.86 54.3904 36.5581 49.7633 36.5581 49.7633V44.7588C36.5581 44.7588 39.2929 46.8201 42.5729 46.8201C45.8529 46.8201 45.7284 44.6749 45.7284 44.3801C45.7284 41.2678 36.4323 41.2678 36.4323 34.3684C36.4323 24.9884 49.9768 28.6891 49.9768 28.6891L49.809 33.1484Z" fill="white"/>
</svg>
